<svg width="133" height="120" viewBox="0 0 133 120" fill="none" xmlns="http://www.w3.org/2000/svg"><path fill-rule="evenodd" clip-rule="evenodd" d="M41.5085 95.7806C43.6777 94.5306 46.437 95.0776 47.9652 97.0606L58.0653 110.166C59.2246 111.67 59.0211 113.799 57.6134 115.073L53.2223 119.052C52.4376 119.762 51.494 120.077 50.4394 119.984C49.3849 119.888 48.5167 119.406 47.8694 118.569L37.2185 104.805C35.364 102.408 36.0508 98.9256 38.6765 97.4125L41.5085 95.7806ZM115.337 51.0777H128.342C130.421 51.0777 132.105 49.3807 132.101 47.3088C132.097 45.2317 130.4 43.5539 128.324 43.5539H115.319C113.239 43.5539 111.556 45.2509 111.56 47.3228C111.564 49.4009 113.261 51.0777 115.337 51.0777ZM99.9015 16.8952L106.403 5.65212C107.442 3.85553 106.835 1.55073 105.035 0.508341C103.239 -0.532224 100.926 0.0744256 99.8861 1.87408L93.3842 13.1171C92.346 14.9137 92.9526 17.2185 94.7522 18.2609C96.5486 19.3004 98.8621 18.6928 99.9015 16.8952ZM114.948 30.3627L125.624 24.2098C127.436 23.1662 128.058 20.8514 127.011 19.0426C125.965 17.2338 123.647 16.613 121.835 17.6586L111.159 23.8115C109.347 24.8551 108.725 27.1699 109.773 28.9786C110.818 30.7874 113.134 31.4083 114.948 30.3627ZM98.158 47.2956C98.1576 47.2955 98.1573 47.2959 98.1575 47.2962L110.75 69.0709C113.113 73.159 111.698 78.435 107.604 80.7944C104.406 82.6381 100.482 82.1795 97.79 79.9428C96.7684 79.0939 95.6362 78.3149 94.3171 78.1594C81.7392 76.6761 66.0745 78.5859 50.2442 84.1322C47.9161 84.9479 45.3106 84.0434 44.0756 81.908L31.018 59.3314C29.7796 57.1901 30.3014 54.4725 32.1808 52.8642C44.8957 41.9836 54.3984 29.476 59.4061 17.8796C59.9418 16.639 59.8211 15.2443 59.5821 13.9143C58.9598 10.4514 60.5224 6.7989 63.7399 4.94547C67.8348 2.58591 73.1193 3.9984 75.4848 8.08641L87.3883 28.6704C87.7532 29.3013 88.5889 29.4606 89.2205 29.0969C94.0858 26.2923 100.309 27.9577 103.118 32.8151C105.927 37.6724 104.259 43.8854 99.3938 46.69C98.9898 46.9237 98.5756 47.1238 98.1583 47.2955C98.1582 47.2956 98.1581 47.2956 98.158 47.2956ZM41.8562 88.7982L26.1677 61.6692C24.7868 59.2812 21.7327 58.4627 19.3426 59.8402L9.20893 65.6807C0.422857 70.7465 -2.61536 82.0655 2.45659 90.8372C7.52853 99.6079 18.8682 102.642 27.6532 97.5775L41.6672 89.5006C41.9132 89.3587 41.9978 89.0444 41.8562 88.7982Z" fill="url(#paint0_linear_3820_99137)"/><defs><linearGradient id="paint0_linear_3820_99137" x1="7.34914" y1="12" x2="143.616" y2="45.0005" gradientUnits="userSpaceOnUse"><stop stop-color="#0084FF"/><stop offset="0.666667" stop-color="#7C6EFF"/><stop offset="1" stop-color="#936AFF"/></linearGradient></defs></svg>
