<svg width="189" height="120" viewBox="0 0 189 120" fill="none" xmlns="http://www.w3.org/2000/svg"><path fill-rule="evenodd" clip-rule="evenodd" d="M183.155 0C185.917 0 188.155 2.23857 188.155 4.99999V109.011C188.155 109.012 188.155 109.012 188.155 109.012C188.156 109.012 188.155 109.013 188.155 109.013L102.337 109.012C101.825 109.012 101.409 109.427 101.409 109.94C101.409 110.453 101.831 110.869 102.345 110.868C127.444 110.828 145.912 112.182 151.37 113.582C151.558 113.63 151.73 113.725 151.87 113.859C154.74 116.637 155.198 117.388 155.13 118.233C155.068 118.922 154.569 119.265 154.354 119.413C154.353 119.414 154.352 119.415 154.352 119.416L154.266 119.586C154.132 119.854 153.851 120.016 153.552 119.999L153.348 119.987H148.508C148.006 119.987 147.576 119.628 147.484 119.135C147.4 118.676 147.033 118.33 146.569 118.289C111.52 115.203 51.4658 117.753 41.1911 118.227C40.7762 118.246 40.4526 118.538 40.3596 118.943C40.2675 119.343 39.9224 119.635 39.5121 119.66L39.3762 119.668C33.5713 120.022 33.3695 119.721 33.006 119.178L33.0056 119.177C32.7757 118.833 32.0873 117.799 35.3639 114.099C35.4713 113.978 35.5951 113.868 35.727 113.774C35.8543 113.684 35.9691 113.613 36.1167 113.562C41.105 111.836 76.9483 110.867 86.4829 110.637C86.9242 110.626 87.2703 110.266 87.2703 109.824C87.2703 109.375 86.9065 109.012 86.4576 109.012H5C2.23858 109.012 0 106.773 0 104.012V5C0 2.23858 2.23857 0 4.99999 0H183.155ZM8.66516 2.88339C5.90373 2.88339 3.66516 5.12197 3.66516 7.88339V99.743C3.66516 102.504 5.90373 104.743 8.66516 104.743H179.49C182.251 104.743 184.49 102.504 184.49 99.743V7.88339C184.49 5.12197 182.251 2.88339 179.49 2.88339H8.66516ZM182.826 9.54871C182.826 6.78728 180.587 4.54871 177.826 4.54871H10.3291C7.56768 4.54871 5.3291 6.78728 5.3291 9.54871V98.08C5.3291 100.841 7.56768 103.08 10.3291 103.08H177.826C180.587 103.08 182.826 100.841 182.826 98.08V9.54871Z" fill="url(#paint0_linear_3820_7239)"/><defs><linearGradient id="paint0_linear_3820_7239" x1="10.4676" y1="12" x2="194.092" y2="75.3392" gradientUnits="userSpaceOnUse"><stop stop-color="#0084FF"/><stop offset="0.666667" stop-color="#7C6EFF"/><stop offset="1" stop-color="#936AFF"/></linearGradient></defs></svg>
