<svg width="718" height="447" viewBox="0 0 718 447" fill="none" xmlns="http://www.w3.org/2000/svg">
<line x1="408" y1="43.5" x2="476" y2="43.5" stroke="white"/>
<g filter="url(#filter0_d_1968_113689)">
<circle cx="407" cy="44" r="8" fill="white"/>
<circle cx="407" cy="44" r="5.5" stroke="#0084FF" stroke-width="5"/>
</g>
<g filter="url(#filter1_bd_1968_113689)">
<circle cx="407" cy="44" r="8" transform="rotate(-180 407 44)" fill="#0084FF" fill-opacity="0.24" shape-rendering="crispEdges"/>
</g>
<ellipse cx="407" cy="44" rx="3" ry="3" transform="rotate(-180 407 44)" fill="white"/>
<g filter="url(#filter2_d_1968_113689)">
<rect x="468" y="24" width="226" height="40" rx="6" fill="#030D17"/>
<rect x="468.715" y="24.715" width="224.57" height="38.57" rx="5.28498" stroke="url(#paint0_linear_1968_113689)" stroke-width="1.43005"/>
</g>
<path d="M483.856 50.24C482.709 50.24 481.736 49.9867 480.936 49.48C480.136 48.9733 479.525 48.2693 479.104 47.368C478.688 46.4667 478.48 45.424 478.48 44.24C478.48 43.056 478.688 42.0133 479.104 41.112C479.525 40.2107 480.136 39.5067 480.936 39C481.736 38.4933 482.709 38.24 483.856 38.24C485.189 38.24 486.285 38.5787 487.144 39.256C488.008 39.9333 488.603 40.8453 488.928 41.992L487.48 42.376C487.245 41.5173 486.827 40.84 486.224 40.344C485.621 39.848 484.832 39.6 483.856 39.6C482.997 39.6 482.283 39.7947 481.712 40.184C481.141 40.5733 480.712 41.1173 480.424 41.816C480.136 42.5093 479.989 43.3173 479.984 44.24C479.979 45.1573 480.12 45.9653 480.408 46.664C480.696 47.3573 481.128 47.9013 481.704 48.296C482.28 48.6853 482.997 48.88 483.856 48.88C484.832 48.88 485.621 48.632 486.224 48.136C486.827 47.6347 487.245 46.9573 487.48 46.104L488.928 46.488C488.603 47.6293 488.008 48.5413 487.144 49.224C486.285 49.9013 485.189 50.24 483.856 50.24ZM494.363 50.24C493.504 50.24 492.763 50.0453 492.139 49.656C491.52 49.2667 491.043 48.728 490.707 48.04C490.371 47.352 490.203 46.5627 490.203 45.672C490.203 44.7653 490.373 43.9707 490.715 43.288C491.056 42.6053 491.539 42.0747 492.163 41.696C492.787 41.312 493.52 41.12 494.363 41.12C495.227 41.12 495.971 41.3147 496.595 41.704C497.219 42.088 497.696 42.624 498.027 43.312C498.363 43.9947 498.531 44.7813 498.531 45.672C498.531 46.5733 498.363 47.368 498.027 48.056C497.691 48.7387 497.211 49.2747 496.587 49.664C495.963 50.048 495.221 50.24 494.363 50.24ZM494.363 48.888C495.259 48.888 495.925 48.5893 496.363 47.992C496.8 47.3947 497.019 46.6213 497.019 45.672C497.019 44.696 496.797 43.92 496.355 43.344C495.912 42.7627 495.248 42.472 494.363 42.472C493.76 42.472 493.264 42.608 492.875 42.88C492.485 43.152 492.195 43.528 492.003 44.008C491.811 44.488 491.715 45.0427 491.715 45.672C491.715 46.6427 491.939 47.4213 492.387 48.008C492.835 48.5947 493.493 48.888 494.363 48.888ZM506.444 50V45.672C506.444 45.2613 506.407 44.8667 506.332 44.488C506.263 44.1093 506.137 43.7707 505.956 43.472C505.78 43.168 505.54 42.928 505.236 42.752C504.937 42.576 504.559 42.488 504.1 42.488C503.743 42.488 503.417 42.5493 503.124 42.672C502.836 42.7893 502.588 42.9707 502.38 43.216C502.172 43.4613 502.009 43.7707 501.892 44.144C501.78 44.512 501.724 44.9467 501.724 45.448L500.788 45.16C500.788 44.3227 500.937 43.6053 501.236 43.008C501.54 42.4053 501.964 41.944 502.508 41.624C503.057 41.2987 503.703 41.136 504.444 41.136C505.004 41.136 505.481 41.224 505.876 41.4C506.271 41.576 506.599 41.8107 506.86 42.104C507.121 42.392 507.327 42.7173 507.476 43.08C507.625 43.4373 507.729 43.8027 507.788 44.176C507.852 44.544 507.884 44.8933 507.884 45.224V50H506.444ZM500.284 50V41.36H501.564V43.672H501.724V50H500.284ZM514.788 50C514.276 50.1013 513.769 50.1413 513.268 50.12C512.772 50.104 512.329 50.0053 511.94 49.824C511.55 49.6373 511.254 49.3493 511.052 48.96C510.881 48.6187 510.788 48.2747 510.772 47.928C510.761 47.576 510.756 47.1787 510.756 46.736V38.96H512.18V46.672C512.18 47.024 512.182 47.3253 512.188 47.576C512.198 47.8267 512.254 48.0427 512.356 48.224C512.548 48.5653 512.852 48.7653 513.268 48.824C513.689 48.8827 514.196 48.8667 514.788 48.776V50ZM509.004 42.536V41.36H514.788V42.536H509.004ZM519.927 50.24C519.079 50.24 518.337 50.0533 517.703 49.68C517.073 49.3013 516.583 48.776 516.231 48.104C515.879 47.4267 515.703 46.6373 515.703 45.736C515.703 44.792 515.876 43.976 516.223 43.288C516.569 42.5947 517.052 42.0613 517.671 41.688C518.295 41.3093 519.025 41.12 519.863 41.12C520.732 41.12 521.471 41.32 522.079 41.72C522.692 42.12 523.151 42.6907 523.455 43.432C523.764 44.1733 523.897 45.056 523.855 46.08H522.415V45.568C522.399 44.5067 522.183 43.7147 521.767 43.192C521.351 42.664 520.732 42.4 519.911 42.4C519.031 42.4 518.361 42.6827 517.903 43.248C517.444 43.8133 517.215 44.624 517.215 45.68C517.215 46.6987 517.444 47.488 517.903 48.048C518.361 48.608 519.015 48.888 519.863 48.888C520.433 48.888 520.929 48.7573 521.351 48.496C521.772 48.2347 522.103 47.8587 522.343 47.368L523.711 47.84C523.375 48.6027 522.868 49.1947 522.191 49.616C521.519 50.032 520.764 50.24 519.927 50.24ZM516.735 46.08V44.936H523.119V46.08H516.735ZM531.553 50V45.672C531.553 45.2613 531.516 44.8667 531.441 44.488C531.372 44.1093 531.247 43.7707 531.065 43.472C530.889 43.168 530.649 42.928 530.345 42.752C530.047 42.576 529.668 42.488 529.209 42.488C528.852 42.488 528.527 42.5493 528.233 42.672C527.945 42.7893 527.697 42.9707 527.489 43.216C527.281 43.4613 527.119 43.7707 527.001 44.144C526.889 44.512 526.833 44.9467 526.833 45.448L525.897 45.16C525.897 44.3227 526.047 43.6053 526.345 43.008C526.649 42.4053 527.073 41.944 527.617 41.624C528.167 41.2987 528.812 41.136 529.553 41.136C530.113 41.136 530.591 41.224 530.985 41.4C531.38 41.576 531.708 41.8107 531.969 42.104C532.231 42.392 532.436 42.7173 532.585 43.08C532.735 43.4373 532.839 43.8027 532.897 44.176C532.961 44.544 532.993 44.8933 532.993 45.224V50H531.553ZM525.393 50V41.36H526.673V43.672H526.833V50H525.393ZM539.897 50C539.385 50.1013 538.878 50.1413 538.377 50.12C537.881 50.104 537.438 50.0053 537.049 49.824C536.66 49.6373 536.364 49.3493 536.161 48.96C535.99 48.6187 535.897 48.2747 535.881 47.928C535.87 47.576 535.865 47.1787 535.865 46.736V38.96H537.289V46.672C537.289 47.024 537.292 47.3253 537.297 47.576C537.308 47.8267 537.364 48.0427 537.465 48.224C537.657 48.5653 537.961 48.7653 538.377 48.824C538.798 48.8827 539.305 48.8667 539.897 48.776V50ZM534.113 42.536V41.36H539.897V42.536H534.113ZM544.854 50V38.48H549.406C549.518 38.48 549.652 38.4853 549.806 38.496C549.961 38.5013 550.11 38.5173 550.254 38.544C550.878 38.64 551.401 38.8533 551.822 39.184C552.249 39.5147 552.569 39.9333 552.782 40.44C552.996 40.9413 553.102 41.4987 553.102 42.112C553.102 43.0027 552.87 43.776 552.406 44.432C551.942 45.0827 551.262 45.4907 550.366 45.656L549.822 45.744H546.278V50H544.854ZM551.71 50L549.438 45.312L550.846 44.88L553.342 50H551.71ZM546.278 44.392H549.358C549.46 44.392 549.574 44.3867 549.702 44.376C549.836 44.3653 549.961 44.3467 550.078 44.32C550.446 44.2347 550.745 44.08 550.974 43.856C551.209 43.6267 551.38 43.36 551.486 43.056C551.593 42.7467 551.646 42.432 551.646 42.112C551.646 41.792 551.593 41.48 551.486 41.176C551.38 40.8667 551.209 40.5973 550.974 40.368C550.745 40.1387 550.446 39.984 550.078 39.904C549.961 39.872 549.836 39.8533 549.702 39.848C549.574 39.8373 549.46 39.832 549.358 39.832H546.278V44.392ZM558.848 50.24C558 50.24 557.259 50.0533 556.624 49.68C555.995 49.3013 555.504 48.776 555.152 48.104C554.8 47.4267 554.624 46.6373 554.624 45.736C554.624 44.792 554.798 43.976 555.144 43.288C555.491 42.5947 555.974 42.0613 556.592 41.688C557.216 41.3093 557.947 41.12 558.784 41.12C559.654 41.12 560.392 41.32 561 41.72C561.614 42.12 562.072 42.6907 562.376 43.432C562.686 44.1733 562.819 45.056 562.776 46.08H561.336V45.568C561.32 44.5067 561.104 43.7147 560.688 43.192C560.272 42.664 559.654 42.4 558.832 42.4C557.952 42.4 557.283 42.6827 556.824 43.248C556.366 43.8133 556.136 44.624 556.136 45.68C556.136 46.6987 556.366 47.488 556.824 48.048C557.283 48.608 557.936 48.888 558.784 48.888C559.355 48.888 559.851 48.7573 560.272 48.496C560.694 48.2347 561.024 47.8587 561.264 47.368L562.632 47.84C562.296 48.6027 561.79 49.1947 561.112 49.616C560.44 50.032 559.686 50.24 558.848 50.24ZM555.656 46.08V44.936H562.04V46.08H555.656ZM568.198 50.24C567.323 50.24 566.579 50.0453 565.966 49.656C565.358 49.2613 564.894 48.72 564.574 48.032C564.254 47.344 564.088 46.56 564.078 45.68C564.088 44.7787 564.256 43.9867 564.582 43.304C564.912 42.616 565.384 42.08 565.998 41.696C566.611 41.312 567.35 41.12 568.214 41.12C569.126 41.12 569.91 41.344 570.566 41.792C571.227 42.24 571.67 42.8533 571.894 43.632L570.486 44.056C570.304 43.5547 570.008 43.1653 569.598 42.888C569.192 42.6107 568.726 42.472 568.198 42.472C567.606 42.472 567.118 42.6107 566.734 42.888C566.35 43.16 566.064 43.5387 565.878 44.024C565.691 44.504 565.595 45.056 565.59 45.68C565.6 46.64 565.822 47.416 566.254 48.008C566.691 48.5947 567.339 48.888 568.198 48.888C568.763 48.888 569.232 48.76 569.606 48.504C569.979 48.2427 570.262 47.8667 570.454 47.376L571.894 47.752C571.595 48.5573 571.128 49.1733 570.494 49.6C569.859 50.0267 569.094 50.24 568.198 50.24ZM576.972 50.24C576.113 50.24 575.372 50.0453 574.748 49.656C574.129 49.2667 573.652 48.728 573.316 48.04C572.98 47.352 572.812 46.5627 572.812 45.672C572.812 44.7653 572.983 43.9707 573.324 43.288C573.665 42.6053 574.148 42.0747 574.772 41.696C575.396 41.312 576.129 41.12 576.972 41.12C577.836 41.12 578.58 41.3147 579.204 41.704C579.828 42.088 580.305 42.624 580.636 43.312C580.972 43.9947 581.14 44.7813 581.14 45.672C581.14 46.5733 580.972 47.368 580.636 48.056C580.3 48.7387 579.82 49.2747 579.196 49.664C578.572 50.048 577.831 50.24 576.972 50.24ZM576.972 48.888C577.868 48.888 578.535 48.5893 578.972 47.992C579.409 47.3947 579.628 46.6213 579.628 45.672C579.628 44.696 579.407 43.92 578.964 43.344C578.521 42.7627 577.857 42.472 576.972 42.472C576.369 42.472 575.873 42.608 575.484 42.88C575.095 43.152 574.804 43.528 574.612 44.008C574.42 44.488 574.324 45.0427 574.324 45.672C574.324 46.6427 574.548 47.4213 574.996 48.008C575.444 48.5947 576.103 48.888 576.972 48.888ZM593.229 50L593.237 44.472C593.237 43.8267 593.064 43.3227 592.717 42.96C592.376 42.592 591.931 42.408 591.381 42.408C591.061 42.408 590.757 42.4827 590.469 42.632C590.181 42.776 589.947 43.0053 589.765 43.32C589.584 43.6293 589.493 44.0267 589.493 44.512L588.741 44.208C588.731 43.5947 588.856 43.0587 589.117 42.6C589.384 42.136 589.747 41.776 590.205 41.52C590.664 41.264 591.181 41.136 591.757 41.136C592.659 41.136 593.368 41.4107 593.885 41.96C594.403 42.504 594.661 43.2373 594.661 44.16L594.653 50H593.229ZM582.893 50V41.36H584.165V43.672H584.325V50H582.893ZM588.069 50L588.077 44.528C588.077 43.8667 587.907 43.3493 587.565 42.976C587.224 42.5973 586.771 42.408 586.205 42.408C585.645 42.408 585.192 42.6 584.845 42.984C584.499 43.368 584.325 43.8773 584.325 44.512L583.573 44.064C583.573 43.504 583.707 43.0027 583.973 42.56C584.24 42.1173 584.603 41.7707 585.061 41.52C585.52 41.264 586.04 41.136 586.621 41.136C587.203 41.136 587.709 41.2587 588.141 41.504C588.573 41.7493 588.907 42.1013 589.141 42.56C589.376 43.0133 589.493 43.5547 589.493 44.184L589.485 50H588.069ZM607.073 50L607.081 44.472C607.081 43.8267 606.908 43.3227 606.561 42.96C606.22 42.592 605.774 42.408 605.225 42.408C604.905 42.408 604.601 42.4827 604.313 42.632C604.025 42.776 603.79 43.0053 603.609 43.32C603.428 43.6293 603.337 44.0267 603.337 44.512L602.585 44.208C602.574 43.5947 602.7 43.0587 602.961 42.6C603.228 42.136 603.59 41.776 604.049 41.52C604.508 41.264 605.025 41.136 605.601 41.136C606.502 41.136 607.212 41.4107 607.729 41.96C608.246 42.504 608.505 43.2373 608.505 44.16L608.497 50H607.073ZM596.737 50V41.36H598.009V43.672H598.169V50H596.737ZM601.913 50L601.921 44.528C601.921 43.8667 601.75 43.3493 601.409 42.976C601.068 42.5973 600.614 42.408 600.049 42.408C599.489 42.408 599.036 42.6 598.689 42.984C598.342 43.368 598.169 43.8773 598.169 44.512L597.417 44.064C597.417 43.504 597.55 43.0027 597.817 42.56C598.084 42.1173 598.446 41.7707 598.905 41.52C599.364 41.264 599.884 41.136 600.465 41.136C601.046 41.136 601.553 41.2587 601.985 41.504C602.417 41.7493 602.75 42.1013 602.985 42.56C603.22 43.0133 603.337 43.5547 603.337 44.184L603.329 50H601.913ZM614.255 50.24C613.407 50.24 612.665 50.0533 612.031 49.68C611.401 49.3013 610.911 48.776 610.559 48.104C610.207 47.4267 610.031 46.6373 610.031 45.736C610.031 44.792 610.204 43.976 610.551 43.288C610.897 42.5947 611.38 42.0613 611.999 41.688C612.623 41.3093 613.353 41.12 614.191 41.12C615.06 41.12 615.799 41.32 616.407 41.72C617.02 42.12 617.479 42.6907 617.783 43.432C618.092 44.1733 618.225 45.056 618.183 46.08H616.743V45.568C616.727 44.5067 616.511 43.7147 616.095 43.192C615.679 42.664 615.06 42.4 614.239 42.4C613.359 42.4 612.689 42.6827 612.231 43.248C611.772 43.8133 611.543 44.624 611.543 45.68C611.543 46.6987 611.772 47.488 612.231 48.048C612.689 48.608 613.343 48.888 614.191 48.888C614.761 48.888 615.257 48.7573 615.679 48.496C616.1 48.2347 616.431 47.8587 616.671 47.368L618.039 47.84C617.703 48.6027 617.196 49.1947 616.519 49.616C615.847 50.032 615.092 50.24 614.255 50.24ZM611.063 46.08V44.936H617.447V46.08H611.063ZM625.881 50V45.672C625.881 45.2613 625.844 44.8667 625.769 44.488C625.7 44.1093 625.575 43.7707 625.393 43.472C625.217 43.168 624.977 42.928 624.673 42.752C624.375 42.576 623.996 42.488 623.537 42.488C623.18 42.488 622.855 42.5493 622.561 42.672C622.273 42.7893 622.025 42.9707 621.817 43.216C621.609 43.4613 621.447 43.7707 621.329 44.144C621.217 44.512 621.161 44.9467 621.161 45.448L620.225 45.16C620.225 44.3227 620.375 43.6053 620.673 43.008C620.977 42.4053 621.401 41.944 621.945 41.624C622.495 41.2987 623.14 41.136 623.881 41.136C624.441 41.136 624.919 41.224 625.313 41.4C625.708 41.576 626.036 41.8107 626.297 42.104C626.559 42.392 626.764 42.7173 626.913 43.08C627.063 43.4373 627.167 43.8027 627.225 44.176C627.289 44.544 627.321 44.8933 627.321 45.224V50H625.881ZM619.721 50V41.36H621.001V43.672H621.161V50H619.721ZM632.715 50.24C631.91 50.24 631.219 50.04 630.643 49.64C630.067 49.2347 629.622 48.688 629.307 48C628.998 47.312 628.843 46.536 628.843 45.672C628.843 44.808 628.998 44.032 629.307 43.344C629.622 42.656 630.067 42.1147 630.643 41.72C631.219 41.32 631.907 41.12 632.707 41.12C633.523 41.12 634.208 41.3173 634.763 41.712C635.318 42.1067 635.736 42.648 636.019 43.336C636.307 44.024 636.451 44.8027 636.451 45.672C636.451 46.5307 636.307 47.3067 636.019 48C635.736 48.688 635.318 49.2347 634.763 49.64C634.208 50.04 633.526 50.24 632.715 50.24ZM632.891 48.936C633.472 48.936 633.95 48.7973 634.323 48.52C634.696 48.2373 634.971 47.8507 635.147 47.36C635.328 46.864 635.419 46.3013 635.419 45.672C635.419 45.032 635.328 44.4693 635.147 43.984C634.971 43.4933 634.699 43.112 634.331 42.84C633.963 42.5627 633.496 42.424 632.931 42.424C632.344 42.424 631.859 42.568 631.475 42.856C631.096 43.144 630.814 43.5333 630.627 44.024C630.446 44.5147 630.355 45.064 630.355 45.672C630.355 46.2853 630.448 46.84 630.635 47.336C630.822 47.8267 631.102 48.216 631.475 48.504C631.854 48.792 632.326 48.936 632.891 48.936ZM635.419 50V43.64H635.259V38.48H636.691V50H635.419ZM641.389 50.24C640.743 50.24 640.202 50.1227 639.765 49.888C639.333 49.648 639.005 49.3333 638.781 48.944C638.562 48.5547 638.453 48.128 638.453 47.664C638.453 47.2107 638.538 46.8187 638.709 46.488C638.885 46.152 639.13 45.8747 639.445 45.656C639.759 45.432 640.135 45.256 640.573 45.128C640.983 45.016 641.442 44.92 641.949 44.84C642.461 44.7547 642.978 44.6773 643.501 44.608C644.023 44.5387 644.511 44.472 644.965 44.408L644.453 44.704C644.469 43.936 644.314 43.368 643.989 43C643.669 42.632 643.114 42.448 642.325 42.448C641.802 42.448 641.343 42.568 640.949 42.808C640.559 43.0427 640.285 43.4267 640.125 43.96L638.773 43.552C638.981 42.7947 639.383 42.2 639.981 41.768C640.578 41.336 641.365 41.12 642.341 41.12C643.125 41.12 643.797 41.2613 644.357 41.544C644.922 41.8213 645.327 42.2427 645.573 42.808C645.695 43.0747 645.773 43.3653 645.805 43.68C645.837 43.9893 645.852 44.3147 645.852 44.656V50H644.589V47.928L644.885 48.12C644.559 48.8187 644.103 49.3467 643.517 49.704C642.935 50.0613 642.226 50.24 641.389 50.24ZM641.605 49.048C642.117 49.048 642.559 48.9573 642.933 48.776C643.311 48.5893 643.615 48.3467 643.845 48.048C644.074 47.744 644.223 47.4133 644.293 47.056C644.373 46.7893 644.415 46.4933 644.421 46.168C644.431 45.8373 644.437 45.584 644.437 45.408L644.933 45.624C644.469 45.688 644.013 45.7493 643.565 45.808C643.117 45.8667 642.693 45.9307 642.293 46C641.893 46.064 641.533 46.1413 641.213 46.232C640.978 46.3067 640.757 46.4027 640.549 46.52C640.346 46.6373 640.181 46.7893 640.053 46.976C639.93 47.1573 639.868 47.384 639.868 47.656C639.868 47.8907 639.927 48.1147 640.045 48.328C640.167 48.5413 640.354 48.7147 640.605 48.848C640.861 48.9813 641.194 49.048 641.605 49.048ZM652.757 50C652.245 50.1013 651.738 50.1413 651.237 50.12C650.741 50.104 650.298 50.0053 649.909 49.824C649.519 49.6373 649.223 49.3493 649.021 48.96C648.85 48.6187 648.757 48.2747 648.741 47.928C648.73 47.576 648.725 47.1787 648.725 46.736V38.96H650.149V46.672C650.149 47.024 650.151 47.3253 650.157 47.576C650.167 47.8267 650.223 48.0427 650.325 48.224C650.517 48.5653 650.821 48.7653 651.237 48.824C651.658 48.8827 652.165 48.8667 652.757 48.776V50ZM646.973 42.536V41.36H652.757V42.536H646.973ZM654.671 39.832V38.36H656.095V39.832H654.671ZM654.671 50V41.36H656.095V50H654.671ZM662.175 50.24C661.316 50.24 660.575 50.0453 659.951 49.656C659.332 49.2667 658.855 48.728 658.519 48.04C658.183 47.352 658.015 46.5627 658.015 45.672C658.015 44.7653 658.186 43.9707 658.527 43.288C658.868 42.6053 659.351 42.0747 659.975 41.696C660.599 41.312 661.332 41.12 662.175 41.12C663.039 41.12 663.783 41.3147 664.407 41.704C665.031 42.088 665.508 42.624 665.839 43.312C666.175 43.9947 666.343 44.7813 666.343 45.672C666.343 46.5733 666.175 47.368 665.839 48.056C665.503 48.7387 665.023 49.2747 664.399 49.664C663.775 50.048 663.034 50.24 662.175 50.24ZM662.175 48.888C663.071 48.888 663.738 48.5893 664.175 47.992C664.612 47.3947 664.831 46.6213 664.831 45.672C664.831 44.696 664.61 43.92 664.167 43.344C663.724 42.7627 663.06 42.472 662.175 42.472C661.572 42.472 661.076 42.608 660.687 42.88C660.298 43.152 660.007 43.528 659.815 44.008C659.623 44.488 659.527 45.0427 659.527 45.672C659.527 46.6427 659.751 47.4213 660.199 48.008C660.647 48.5947 661.306 48.888 662.175 48.888ZM674.256 50V45.672C674.256 45.2613 674.219 44.8667 674.144 44.488C674.075 44.1093 673.95 43.7707 673.768 43.472C673.592 43.168 673.352 42.928 673.048 42.752C672.75 42.576 672.371 42.488 671.912 42.488C671.555 42.488 671.23 42.5493 670.936 42.672C670.648 42.7893 670.4 42.9707 670.192 43.216C669.984 43.4613 669.822 43.7707 669.704 44.144C669.592 44.512 669.536 44.9467 669.536 45.448L668.6 45.16C668.6 44.3227 668.75 43.6053 669.048 43.008C669.352 42.4053 669.776 41.944 670.32 41.624C670.87 41.2987 671.515 41.136 672.256 41.136C672.816 41.136 673.294 41.224 673.688 41.4C674.083 41.576 674.411 41.8107 674.672 42.104C674.934 42.392 675.139 42.7173 675.288 43.08C675.438 43.4373 675.542 43.8027 675.6 44.176C675.664 44.544 675.696 44.8933 675.696 45.224V50H674.256ZM668.096 50V41.36H669.376V43.672H669.536V50H668.096ZM681.04 50.232C680.011 50.232 679.166 50.008 678.504 49.56C677.848 49.1067 677.446 48.4747 677.296 47.664L678.752 47.432C678.87 47.9013 679.139 48.2747 679.56 48.552C679.982 48.824 680.504 48.96 681.128 48.96C681.72 48.96 682.184 48.8373 682.52 48.592C682.856 48.3467 683.024 48.0133 683.024 47.592C683.024 47.3467 682.968 47.1493 682.856 47C682.744 46.8453 682.512 46.7013 682.16 46.568C681.814 46.4347 681.288 46.2747 680.584 46.088C679.822 45.8853 679.222 45.6747 678.784 45.456C678.347 45.2373 678.035 44.984 677.848 44.696C677.662 44.408 677.568 44.0587 677.568 43.648C677.568 43.1413 677.707 42.6987 677.984 42.32C678.262 41.936 678.648 41.64 679.144 41.432C679.646 41.224 680.227 41.12 680.888 41.12C681.544 41.12 682.131 41.224 682.648 41.432C683.166 41.64 683.582 41.936 683.896 42.32C684.216 42.6987 684.406 43.1413 684.464 43.648L683.008 43.912C682.939 43.448 682.715 43.0827 682.336 42.816C681.963 42.5493 681.48 42.408 680.888 42.392C680.328 42.3707 679.872 42.4693 679.52 42.688C679.174 42.9067 679 43.2027 679 43.576C679 43.784 679.064 43.9627 679.192 44.112C679.326 44.2613 679.568 44.4027 679.92 44.536C680.278 44.6693 680.795 44.8213 681.472 44.992C682.235 45.184 682.835 45.3947 683.272 45.624C683.715 45.848 684.03 46.1147 684.216 46.424C684.403 46.728 684.496 47.104 684.496 47.552C684.496 48.384 684.19 49.04 683.576 49.52C682.963 49.9947 682.118 50.232 681.04 50.232Z" fill="white"/>
<path d="M292 212L292 183L469 183" stroke="white"/>
<g filter="url(#filter3_d_1968_113689)">
<circle cx="292" cy="220" r="8" fill="white"/>
<circle cx="292" cy="220" r="5.5" stroke="#0084FF" stroke-width="5"/>
</g>
<g filter="url(#filter4_bd_1968_113689)">
<circle cx="292" cy="220" r="8" transform="rotate(-180 292 220)" fill="#0084FF" fill-opacity="0.24" shape-rendering="crispEdges"/>
</g>
<ellipse cx="292" cy="220" rx="3" ry="3" transform="rotate(-180 292 220)" fill="white"/>
<g filter="url(#filter5_d_1968_113689)">
<rect x="467" y="163" width="130" height="40" rx="6" fill="#030D17"/>
<rect x="467.715" y="163.715" width="128.57" height="38.57" rx="5.28498" stroke="url(#paint1_linear_1968_113689)" stroke-width="1.43005"/>
</g>
<path d="M478.12 189V177.48H479.416L483.768 186.656L488.096 177.48H489.408V188.992H488.056V180.608L484.144 189H483.384L479.472 180.608V189H478.12ZM495.331 189.24C494.473 189.24 493.731 189.045 493.107 188.656C492.489 188.267 492.011 187.728 491.675 187.04C491.339 186.352 491.171 185.563 491.171 184.672C491.171 183.765 491.342 182.971 491.683 182.288C492.025 181.605 492.507 181.075 493.131 180.696C493.755 180.312 494.489 180.12 495.331 180.12C496.195 180.12 496.939 180.315 497.563 180.704C498.187 181.088 498.665 181.624 498.995 182.312C499.331 182.995 499.499 183.781 499.499 184.672C499.499 185.573 499.331 186.368 498.995 187.056C498.659 187.739 498.179 188.275 497.555 188.664C496.931 189.048 496.19 189.24 495.331 189.24ZM495.331 187.888C496.227 187.888 496.894 187.589 497.331 186.992C497.769 186.395 497.987 185.621 497.987 184.672C497.987 183.696 497.766 182.92 497.323 182.344C496.881 181.763 496.217 181.472 495.331 181.472C494.729 181.472 494.233 181.608 493.843 181.88C493.454 182.152 493.163 182.528 492.971 183.008C492.779 183.488 492.683 184.043 492.683 184.672C492.683 185.643 492.907 186.421 493.355 187.008C493.803 187.595 494.462 187.888 495.331 187.888ZM503.284 189L500.148 180.36H501.588L504.012 187.184L506.428 180.36H507.876L504.74 189H503.284ZM509.483 178.832V177.36H510.907V178.832H509.483ZM509.483 189V180.36H510.907V189H509.483ZM517.052 189.24C516.204 189.24 515.462 189.053 514.828 188.68C514.198 188.301 513.708 187.776 513.356 187.104C513.004 186.427 512.828 185.637 512.828 184.736C512.828 183.792 513.001 182.976 513.348 182.288C513.694 181.595 514.177 181.061 514.796 180.688C515.42 180.309 516.15 180.12 516.988 180.12C517.857 180.12 518.596 180.32 519.204 180.72C519.817 181.12 520.276 181.691 520.58 182.432C520.889 183.173 521.022 184.056 520.98 185.08H519.54V184.568C519.524 183.507 519.308 182.715 518.892 182.192C518.476 181.664 517.857 181.4 517.036 181.4C516.156 181.4 515.486 181.683 515.028 182.248C514.569 182.813 514.34 183.624 514.34 184.68C514.34 185.699 514.569 186.488 515.028 187.048C515.486 187.608 516.14 187.888 516.988 187.888C517.558 187.888 518.054 187.757 518.476 187.496C518.897 187.235 519.228 186.859 519.468 186.368L520.836 186.84C520.5 187.603 519.993 188.195 519.316 188.616C518.644 189.032 517.889 189.24 517.052 189.24ZM513.86 185.08V183.936H520.244V185.08H513.86ZM525.964 189V177.48H530.452C531.14 177.48 531.726 177.621 532.212 177.904C532.702 178.187 533.076 178.56 533.332 179.024C533.593 179.483 533.724 179.979 533.724 180.512C533.724 181.136 533.564 181.683 533.244 182.152C532.924 182.621 532.492 182.944 531.948 183.12L531.932 182.728C532.673 182.925 533.249 183.288 533.66 183.816C534.07 184.344 534.276 184.973 534.276 185.704C534.276 186.376 534.137 186.957 533.86 187.448C533.588 187.939 533.193 188.32 532.676 188.592C532.164 188.864 531.556 189 530.852 189H525.964ZM527.404 187.64H530.58C531.006 187.64 531.388 187.563 531.724 187.408C532.06 187.248 532.324 187.024 532.516 186.736C532.713 186.448 532.812 186.101 532.812 185.696C532.812 185.307 532.724 184.957 532.548 184.648C532.377 184.339 532.134 184.093 531.82 183.912C531.51 183.725 531.15 183.632 530.74 183.632H527.404V187.64ZM527.404 182.288H530.436C530.777 182.288 531.084 182.216 531.356 182.072C531.633 181.923 531.852 181.715 532.012 181.448C532.177 181.181 532.26 180.869 532.26 180.512C532.26 180.016 532.092 179.611 531.756 179.296C531.42 178.981 530.98 178.824 530.436 178.824H527.404V182.288ZM539.55 189.24C538.691 189.24 537.95 189.045 537.326 188.656C536.707 188.267 536.23 187.728 535.894 187.04C535.558 186.352 535.39 185.563 535.39 184.672C535.39 183.765 535.561 182.971 535.902 182.288C536.243 181.605 536.726 181.075 537.35 180.696C537.974 180.312 538.707 180.12 539.55 180.12C540.414 180.12 541.158 180.315 541.782 180.704C542.406 181.088 542.883 181.624 543.214 182.312C543.55 182.995 543.718 183.781 543.718 184.672C543.718 185.573 543.55 186.368 543.214 187.056C542.878 187.739 542.398 188.275 541.774 188.664C541.15 189.048 540.409 189.24 539.55 189.24ZM539.55 187.888C540.446 187.888 541.113 187.589 541.55 186.992C541.987 186.395 542.206 185.621 542.206 184.672C542.206 183.696 541.985 182.92 541.542 182.344C541.099 181.763 540.435 181.472 539.55 181.472C538.947 181.472 538.451 181.608 538.062 181.88C537.673 182.152 537.382 182.528 537.19 183.008C536.998 183.488 536.902 184.043 536.902 184.672C536.902 185.643 537.126 186.421 537.574 187.008C538.022 187.595 538.681 187.888 539.55 187.888ZM544.316 189L547.62 184.632L544.388 180.36H546.084L548.452 183.528L550.796 180.36H552.492L549.26 184.632L552.572 189H550.868L548.452 185.736L546.02 189H544.316ZM556.258 189L560.114 177.48H562.098L565.954 189H564.474L560.866 178.312H561.314L557.738 189H556.258ZM558.114 186.304V184.968H564.098V186.304H558.114ZM571.354 189.24C570.543 189.24 569.86 189.04 569.306 188.64C568.751 188.235 568.33 187.688 568.042 187C567.759 186.307 567.618 185.531 567.618 184.672C567.618 183.803 567.759 183.024 568.042 182.336C568.33 181.648 568.751 181.107 569.306 180.712C569.866 180.317 570.551 180.12 571.362 180.12C572.162 180.12 572.85 180.32 573.426 180.72C574.007 181.115 574.452 181.656 574.762 182.344C575.071 183.032 575.226 183.808 575.226 184.672C575.226 185.536 575.071 186.312 574.762 187C574.452 187.688 574.007 188.235 573.426 188.64C572.85 189.04 572.159 189.24 571.354 189.24ZM567.378 192.84V180.36H568.65V186.72H568.81V192.84H567.378ZM571.178 187.936C571.748 187.936 572.22 187.792 572.594 187.504C572.967 187.216 573.247 186.827 573.434 186.336C573.62 185.84 573.714 185.285 573.714 184.672C573.714 184.064 573.62 183.515 573.434 183.024C573.252 182.533 572.97 182.144 572.586 181.856C572.207 181.568 571.724 181.424 571.138 181.424C570.578 181.424 570.114 181.563 569.746 181.84C569.378 182.112 569.103 182.493 568.922 182.984C568.74 183.469 568.65 184.032 568.65 184.672C568.65 185.301 568.738 185.864 568.914 186.36C569.095 186.851 569.372 187.237 569.746 187.52C570.119 187.797 570.596 187.936 571.178 187.936ZM580.947 189.24C580.137 189.24 579.454 189.04 578.899 188.64C578.345 188.235 577.923 187.688 577.635 187C577.353 186.307 577.211 185.531 577.211 184.672C577.211 183.803 577.353 183.024 577.635 182.336C577.923 181.648 578.345 181.107 578.899 180.712C579.459 180.317 580.145 180.12 580.955 180.12C581.755 180.12 582.443 180.32 583.019 180.72C583.601 181.115 584.046 181.656 584.355 182.344C584.665 183.032 584.819 183.808 584.819 184.672C584.819 185.536 584.665 186.312 584.355 187C584.046 187.688 583.601 188.235 583.019 188.64C582.443 189.04 581.753 189.24 580.947 189.24ZM576.971 192.84V180.36H578.243V186.72H578.403V192.84H576.971ZM580.771 187.936C581.342 187.936 581.814 187.792 582.187 187.504C582.561 187.216 582.841 186.827 583.027 186.336C583.214 185.84 583.307 185.285 583.307 184.672C583.307 184.064 583.214 183.515 583.027 183.024C582.846 182.533 582.563 182.144 582.179 181.856C581.801 181.568 581.318 181.424 580.731 181.424C580.171 181.424 579.707 181.563 579.339 181.84C578.971 182.112 578.697 182.493 578.515 182.984C578.334 183.469 578.243 184.032 578.243 184.672C578.243 185.301 578.331 185.864 578.507 186.36C578.689 186.851 578.966 187.237 579.339 187.52C579.713 187.797 580.19 187.936 580.771 187.936Z" fill="white"/>
<line x1="521" y1="301.5" x2="557" y2="301.5" stroke="white"/>
<g filter="url(#filter6_d_1968_113689)">
<circle cx="520" cy="302" r="8" fill="white"/>
<circle cx="520" cy="302" r="5.5" stroke="#0084FF" stroke-width="5"/>
</g>
<g filter="url(#filter7_bd_1968_113689)">
<circle cx="520" cy="302" r="8" transform="rotate(-180 520 302)" fill="#0084FF" fill-opacity="0.24" shape-rendering="crispEdges"/>
</g>
<ellipse cx="520" cy="302" rx="3" ry="3" transform="rotate(-180 520 302)" fill="white"/>
<g filter="url(#filter8_d_1968_113689)">
<rect x="550" y="282" width="121" height="66" rx="6" fill="#030D17"/>
<rect x="550.715" y="282.715" width="119.57" height="64.57" rx="5.28498" stroke="url(#paint2_linear_1968_113689)" stroke-width="1.43005"/>
</g>
<path d="M565.856 308.24C564.709 308.24 563.736 307.987 562.936 307.48C562.136 306.973 561.525 306.269 561.104 305.368C560.688 304.467 560.48 303.424 560.48 302.24C560.48 301.056 560.688 300.013 561.104 299.112C561.525 298.211 562.136 297.507 562.936 297C563.736 296.493 564.709 296.24 565.856 296.24C567.189 296.24 568.285 296.579 569.144 297.256C570.008 297.933 570.603 298.845 570.928 299.992L569.48 300.376C569.245 299.517 568.827 298.84 568.224 298.344C567.621 297.848 566.832 297.6 565.856 297.6C564.997 297.6 564.283 297.795 563.712 298.184C563.141 298.573 562.712 299.117 562.424 299.816C562.136 300.509 561.989 301.317 561.984 302.24C561.979 303.157 562.12 303.965 562.408 304.664C562.696 305.357 563.128 305.901 563.704 306.296C564.28 306.685 564.997 306.88 565.856 306.88C566.832 306.88 567.621 306.632 568.224 306.136C568.827 305.635 569.245 304.957 569.48 304.104L570.928 304.488C570.603 305.629 570.008 306.541 569.144 307.224C568.285 307.901 567.189 308.24 565.856 308.24ZM576.363 308.24C575.504 308.24 574.763 308.045 574.139 307.656C573.52 307.267 573.043 306.728 572.707 306.04C572.371 305.352 572.203 304.563 572.203 303.672C572.203 302.765 572.373 301.971 572.715 301.288C573.056 300.605 573.539 300.075 574.163 299.696C574.787 299.312 575.52 299.12 576.363 299.12C577.227 299.12 577.971 299.315 578.595 299.704C579.219 300.088 579.696 300.624 580.027 301.312C580.363 301.995 580.531 302.781 580.531 303.672C580.531 304.573 580.363 305.368 580.027 306.056C579.691 306.739 579.211 307.275 578.587 307.664C577.963 308.048 577.221 308.24 576.363 308.24ZM576.363 306.888C577.259 306.888 577.925 306.589 578.363 305.992C578.8 305.395 579.019 304.621 579.019 303.672C579.019 302.696 578.797 301.92 578.355 301.344C577.912 300.763 577.248 300.472 576.363 300.472C575.76 300.472 575.264 300.608 574.875 300.88C574.485 301.152 574.195 301.528 574.003 302.008C573.811 302.488 573.715 303.043 573.715 303.672C573.715 304.643 573.939 305.421 574.387 306.008C574.835 306.595 575.493 306.888 576.363 306.888ZM592.62 308L592.628 302.472C592.628 301.827 592.455 301.323 592.108 300.96C591.767 300.592 591.321 300.408 590.772 300.408C590.452 300.408 590.148 300.483 589.86 300.632C589.572 300.776 589.337 301.005 589.156 301.32C588.975 301.629 588.884 302.027 588.884 302.512L588.132 302.208C588.121 301.595 588.247 301.059 588.508 300.6C588.775 300.136 589.137 299.776 589.596 299.52C590.055 299.264 590.572 299.136 591.148 299.136C592.049 299.136 592.759 299.411 593.276 299.96C593.793 300.504 594.052 301.237 594.052 302.16L594.044 308H592.62ZM582.284 308V299.36H583.556V301.672H583.716V308H582.284ZM587.46 308L587.468 302.528C587.468 301.867 587.297 301.349 586.956 300.976C586.615 300.597 586.161 300.408 585.596 300.408C585.036 300.408 584.583 300.6 584.236 300.984C583.889 301.368 583.716 301.877 583.716 302.512L582.964 302.064C582.964 301.504 583.097 301.003 583.364 300.56C583.631 300.117 583.993 299.771 584.452 299.52C584.911 299.264 585.431 299.136 586.012 299.136C586.593 299.136 587.1 299.259 587.532 299.504C587.964 299.749 588.297 300.101 588.532 300.56C588.767 301.013 588.884 301.555 588.884 302.184L588.876 308H587.46ZM600.104 308.24C599.293 308.24 598.61 308.04 598.056 307.64C597.501 307.235 597.08 306.688 596.792 306C596.509 305.307 596.368 304.531 596.368 303.672C596.368 302.803 596.509 302.024 596.792 301.336C597.08 300.648 597.501 300.107 598.056 299.712C598.616 299.317 599.301 299.12 600.112 299.12C600.912 299.12 601.6 299.32 602.176 299.72C602.757 300.115 603.202 300.656 603.512 301.344C603.821 302.032 603.976 302.808 603.976 303.672C603.976 304.536 603.821 305.312 603.512 306C603.202 306.688 602.757 307.235 602.176 307.64C601.6 308.04 600.909 308.24 600.104 308.24ZM596.128 311.84V299.36H597.4V305.72H597.56V311.84H596.128ZM599.928 306.936C600.498 306.936 600.97 306.792 601.344 306.504C601.717 306.216 601.997 305.827 602.184 305.336C602.37 304.84 602.464 304.285 602.464 303.672C602.464 303.064 602.37 302.515 602.184 302.024C602.002 301.533 601.72 301.144 601.336 300.856C600.957 300.568 600.474 300.424 599.888 300.424C599.328 300.424 598.864 300.563 598.496 300.84C598.128 301.112 597.853 301.493 597.672 301.984C597.49 302.469 597.4 303.032 597.4 303.672C597.4 304.301 597.488 304.864 597.664 305.36C597.845 305.851 598.122 306.237 598.496 306.52C598.869 306.797 599.346 306.936 599.928 306.936ZM608.185 308.24C607.54 308.24 606.999 308.123 606.561 307.888C606.129 307.648 605.801 307.333 605.577 306.944C605.359 306.555 605.249 306.128 605.249 305.664C605.249 305.211 605.335 304.819 605.505 304.488C605.681 304.152 605.927 303.875 606.241 303.656C606.556 303.432 606.932 303.256 607.369 303.128C607.78 303.016 608.239 302.92 608.745 302.84C609.257 302.755 609.775 302.677 610.297 302.608C610.82 302.539 611.308 302.472 611.761 302.408L611.249 302.704C611.265 301.936 611.111 301.368 610.785 301C610.465 300.632 609.911 300.448 609.121 300.448C608.599 300.448 608.14 300.568 607.745 300.808C607.356 301.043 607.081 301.427 606.921 301.96L605.569 301.552C605.777 300.795 606.18 300.2 606.777 299.768C607.375 299.336 608.161 299.12 609.137 299.12C609.921 299.12 610.593 299.261 611.153 299.544C611.719 299.821 612.124 300.243 612.369 300.808C612.492 301.075 612.569 301.365 612.601 301.68C612.633 301.989 612.649 302.315 612.649 302.656V308H611.385V305.928L611.681 306.12C611.356 306.819 610.9 307.347 610.313 307.704C609.732 308.061 609.023 308.24 608.185 308.24ZM608.401 307.048C608.913 307.048 609.356 306.957 609.729 306.776C610.108 306.589 610.412 306.347 610.641 306.048C610.871 305.744 611.02 305.413 611.089 305.056C611.169 304.789 611.212 304.493 611.217 304.168C611.228 303.837 611.233 303.584 611.233 303.408L611.729 303.624C611.265 303.688 610.809 303.749 610.361 303.808C609.913 303.867 609.489 303.931 609.089 304C608.689 304.064 608.329 304.141 608.009 304.232C607.775 304.307 607.553 304.403 607.345 304.52C607.143 304.637 606.977 304.789 606.849 304.976C606.727 305.157 606.665 305.384 606.665 305.656C606.665 305.891 606.724 306.115 606.841 306.328C606.964 306.541 607.151 306.715 607.401 306.848C607.657 306.981 607.991 307.048 608.401 307.048ZM620.881 308V303.672C620.881 303.261 620.844 302.867 620.769 302.488C620.7 302.109 620.575 301.771 620.393 301.472C620.217 301.168 619.977 300.928 619.673 300.752C619.375 300.576 618.996 300.488 618.537 300.488C618.18 300.488 617.855 300.549 617.561 300.672C617.273 300.789 617.025 300.971 616.817 301.216C616.609 301.461 616.447 301.771 616.329 302.144C616.217 302.512 616.161 302.947 616.161 303.448L615.225 303.16C615.225 302.323 615.375 301.605 615.673 301.008C615.977 300.405 616.401 299.944 616.945 299.624C617.495 299.299 618.14 299.136 618.881 299.136C619.441 299.136 619.919 299.224 620.313 299.4C620.708 299.576 621.036 299.811 621.297 300.104C621.559 300.392 621.764 300.717 621.913 301.08C622.063 301.437 622.167 301.803 622.225 302.176C622.289 302.544 622.321 302.893 622.321 303.224V308H620.881ZM614.721 308V299.36H616.001V301.672H616.161V308H614.721ZM624.561 297.832V296.36H625.985V297.832H624.561ZM624.561 308V299.36H625.985V308H624.561ZM632.066 308.24C631.207 308.24 630.466 308.045 629.842 307.656C629.223 307.267 628.746 306.728 628.41 306.04C628.074 305.352 627.906 304.563 627.906 303.672C627.906 302.765 628.076 301.971 628.418 301.288C628.759 300.605 629.242 300.075 629.866 299.696C630.49 299.312 631.223 299.12 632.066 299.12C632.93 299.12 633.674 299.315 634.298 299.704C634.922 300.088 635.399 300.624 635.73 301.312C636.066 301.995 636.234 302.781 636.234 303.672C636.234 304.573 636.066 305.368 635.73 306.056C635.394 306.739 634.914 307.275 634.29 307.664C633.666 308.048 632.924 308.24 632.066 308.24ZM632.066 306.888C632.962 306.888 633.628 306.589 634.066 305.992C634.503 305.395 634.722 304.621 634.722 303.672C634.722 302.696 634.5 301.92 634.058 301.344C633.615 300.763 632.951 300.472 632.066 300.472C631.463 300.472 630.967 300.608 630.578 300.88C630.188 301.152 629.898 301.528 629.706 302.008C629.514 302.488 629.418 303.043 629.418 303.672C629.418 304.643 629.642 305.421 630.09 306.008C630.538 306.595 631.196 306.888 632.066 306.888ZM644.147 308V303.672C644.147 303.261 644.11 302.867 644.035 302.488C643.966 302.109 643.84 301.771 643.659 301.472C643.483 301.168 643.243 300.928 642.939 300.752C642.64 300.576 642.262 300.488 641.803 300.488C641.446 300.488 641.12 300.549 640.827 300.672C640.539 300.789 640.291 300.971 640.083 301.216C639.875 301.461 639.712 301.771 639.595 302.144C639.483 302.512 639.427 302.947 639.427 303.448L638.491 303.16C638.491 302.323 638.64 301.605 638.939 301.008C639.243 300.405 639.667 299.944 640.211 299.624C640.76 299.299 641.406 299.136 642.147 299.136C642.707 299.136 643.184 299.224 643.579 299.4C643.974 299.576 644.302 299.811 644.563 300.104C644.824 300.392 645.03 300.717 645.179 301.08C645.328 301.437 645.432 301.803 645.491 302.176C645.555 302.544 645.587 302.893 645.587 303.224V308H644.147ZM637.987 308V299.36H639.267V301.672H639.427V308H637.987ZM561.12 332V320.48H565.672C565.784 320.48 565.917 320.485 566.072 320.496C566.227 320.501 566.376 320.517 566.52 320.544C567.144 320.64 567.667 320.853 568.088 321.184C568.515 321.515 568.835 321.933 569.048 322.44C569.261 322.941 569.368 323.499 569.368 324.112C569.368 325.003 569.136 325.776 568.672 326.432C568.208 327.083 567.528 327.491 566.632 327.656L566.088 327.744H562.544V332H561.12ZM567.976 332L565.704 327.312L567.112 326.88L569.608 332H567.976ZM562.544 326.392H565.624C565.725 326.392 565.84 326.387 565.968 326.376C566.101 326.365 566.227 326.347 566.344 326.32C566.712 326.235 567.011 326.08 567.24 325.856C567.475 325.627 567.645 325.36 567.752 325.056C567.859 324.747 567.912 324.432 567.912 324.112C567.912 323.792 567.859 323.48 567.752 323.176C567.645 322.867 567.475 322.597 567.24 322.368C567.011 322.139 566.712 321.984 566.344 321.904C566.227 321.872 566.101 321.853 565.968 321.848C565.84 321.837 565.725 321.832 565.624 321.832H562.544V326.392ZM575.114 332.24C574.266 332.24 573.525 332.053 572.89 331.68C572.261 331.301 571.77 330.776 571.418 330.104C571.066 329.427 570.89 328.637 570.89 327.736C570.89 326.792 571.063 325.976 571.41 325.288C571.757 324.595 572.239 324.061 572.858 323.688C573.482 323.309 574.213 323.12 575.05 323.12C575.919 323.12 576.658 323.32 577.266 323.72C577.879 324.12 578.338 324.691 578.642 325.432C578.951 326.173 579.085 327.056 579.042 328.08H577.602V327.568C577.586 326.507 577.37 325.715 576.954 325.192C576.538 324.664 575.919 324.4 575.098 324.4C574.218 324.4 573.549 324.683 573.09 325.248C572.631 325.813 572.402 326.624 572.402 327.68C572.402 328.699 572.631 329.488 573.09 330.048C573.549 330.608 574.202 330.888 575.05 330.888C575.621 330.888 576.117 330.757 576.538 330.496C576.959 330.235 577.29 329.859 577.53 329.368L578.898 329.84C578.562 330.603 578.055 331.195 577.378 331.616C576.706 332.032 575.951 332.24 575.114 332.24ZM571.922 328.08V326.936H578.306V328.08H571.922ZM590.917 332L590.925 326.472C590.925 325.827 590.751 325.323 590.405 324.96C590.063 324.592 589.618 324.408 589.069 324.408C588.749 324.408 588.445 324.483 588.157 324.632C587.869 324.776 587.634 325.005 587.453 325.32C587.271 325.629 587.181 326.027 587.181 326.512L586.429 326.208C586.418 325.595 586.543 325.059 586.805 324.6C587.071 324.136 587.434 323.776 587.893 323.52C588.351 323.264 588.869 323.136 589.445 323.136C590.346 323.136 591.055 323.411 591.573 323.96C592.09 324.504 592.349 325.237 592.349 326.16L592.341 332H590.917ZM580.581 332V323.36H581.853V325.672H582.013V332H580.581ZM585.757 332L585.765 326.528C585.765 325.867 585.594 325.349 585.253 324.976C584.911 324.597 584.458 324.408 583.893 324.408C583.333 324.408 582.879 324.6 582.533 324.984C582.186 325.368 582.013 325.877 582.013 326.512L581.261 326.064C581.261 325.504 581.394 325.003 581.661 324.56C581.927 324.117 582.29 323.771 582.749 323.52C583.207 323.264 583.727 323.136 584.309 323.136C584.89 323.136 585.397 323.259 585.829 323.504C586.261 323.749 586.594 324.101 586.829 324.56C587.063 325.013 587.181 325.555 587.181 326.184L587.173 332H585.757ZM598.034 332.24C597.176 332.24 596.434 332.045 595.81 331.656C595.192 331.267 594.714 330.728 594.378 330.04C594.042 329.352 593.874 328.563 593.874 327.672C593.874 326.765 594.045 325.971 594.386 325.288C594.728 324.605 595.21 324.075 595.834 323.696C596.458 323.312 597.192 323.12 598.034 323.12C598.898 323.12 599.642 323.315 600.266 323.704C600.89 324.088 601.368 324.624 601.698 325.312C602.034 325.995 602.202 326.781 602.202 327.672C602.202 328.573 602.034 329.368 601.698 330.056C601.362 330.739 600.882 331.275 600.258 331.664C599.634 332.048 598.893 332.24 598.034 332.24ZM598.034 330.888C598.93 330.888 599.597 330.589 600.034 329.992C600.472 329.395 600.69 328.621 600.69 327.672C600.69 326.696 600.469 325.92 600.026 325.344C599.584 324.763 598.92 324.472 598.034 324.472C597.432 324.472 596.936 324.608 596.546 324.88C596.157 325.152 595.866 325.528 595.674 326.008C595.482 326.488 595.386 327.043 595.386 327.672C595.386 328.643 595.61 329.421 596.058 330.008C596.506 330.595 597.165 330.888 598.034 330.888ZM608.788 332C608.276 332.101 607.769 332.141 607.268 332.12C606.772 332.104 606.329 332.005 605.94 331.824C605.55 331.637 605.254 331.349 605.052 330.96C604.881 330.619 604.788 330.275 604.772 329.928C604.761 329.576 604.756 329.179 604.756 328.736V320.96H606.18V328.672C606.18 329.024 606.182 329.325 606.188 329.576C606.198 329.827 606.254 330.043 606.356 330.224C606.548 330.565 606.852 330.765 607.268 330.824C607.689 330.883 608.196 330.867 608.788 330.776V332ZM603.004 324.536V323.36H608.788V324.536H603.004ZM613.927 332.24C613.079 332.24 612.337 332.053 611.703 331.68C611.073 331.301 610.583 330.776 610.231 330.104C609.879 329.427 609.703 328.637 609.703 327.736C609.703 326.792 609.876 325.976 610.223 325.288C610.569 324.595 611.052 324.061 611.671 323.688C612.295 323.309 613.025 323.12 613.863 323.12C614.732 323.12 615.471 323.32 616.079 323.72C616.692 324.12 617.151 324.691 617.455 325.432C617.764 326.173 617.897 327.056 617.855 328.08H616.415V327.568C616.399 326.507 616.183 325.715 615.767 325.192C615.351 324.664 614.732 324.4 613.911 324.4C613.031 324.4 612.361 324.683 611.903 325.248C611.444 325.813 611.215 326.624 611.215 327.68C611.215 328.699 611.444 329.488 611.903 330.048C612.361 330.608 613.015 330.888 613.863 330.888C614.433 330.888 614.929 330.757 615.351 330.496C615.772 330.235 616.103 329.859 616.343 329.368L617.711 329.84C617.375 330.603 616.868 331.195 616.191 331.616C615.519 332.032 614.764 332.24 613.927 332.24ZM610.735 328.08V326.936H617.119V328.08H610.735ZM622.039 332L625.895 320.48H627.879L631.735 332H630.255L626.647 321.312H627.095L623.519 332H622.039ZM623.895 329.304V327.968H629.879V329.304H623.895ZM637.135 332.24C636.324 332.24 635.642 332.04 635.087 331.64C634.532 331.235 634.111 330.688 633.823 330C633.54 329.307 633.399 328.531 633.399 327.672C633.399 326.803 633.54 326.024 633.823 325.336C634.111 324.648 634.532 324.107 635.087 323.712C635.647 323.317 636.332 323.12 637.143 323.12C637.943 323.12 638.631 323.32 639.207 323.72C639.788 324.115 640.234 324.656 640.543 325.344C640.852 326.032 641.007 326.808 641.007 327.672C641.007 328.536 640.852 329.312 640.543 330C640.234 330.688 639.788 331.235 639.207 331.64C638.631 332.04 637.94 332.24 637.135 332.24ZM633.159 335.84V323.36H634.431V329.72H634.591V335.84H633.159ZM636.959 330.936C637.53 330.936 638.002 330.792 638.375 330.504C638.748 330.216 639.028 329.827 639.215 329.336C639.402 328.84 639.495 328.285 639.495 327.672C639.495 327.064 639.402 326.515 639.215 326.024C639.034 325.533 638.751 325.144 638.367 324.856C637.988 324.568 637.506 324.424 636.919 324.424C636.359 324.424 635.895 324.563 635.527 324.84C635.159 325.112 634.884 325.493 634.703 325.984C634.522 326.469 634.431 327.032 634.431 327.672C634.431 328.301 634.519 328.864 634.695 329.36C634.876 329.851 635.154 330.237 635.527 330.52C635.9 330.797 636.378 330.936 636.959 330.936ZM646.729 332.24C645.918 332.24 645.235 332.04 644.681 331.64C644.126 331.235 643.705 330.688 643.417 330C643.134 329.307 642.993 328.531 642.993 327.672C642.993 326.803 643.134 326.024 643.417 325.336C643.705 324.648 644.126 324.107 644.681 323.712C645.241 323.317 645.926 323.12 646.737 323.12C647.537 323.12 648.225 323.32 648.801 323.72C649.382 324.115 649.827 324.656 650.137 325.344C650.446 326.032 650.601 326.808 650.601 327.672C650.601 328.536 650.446 329.312 650.137 330C649.827 330.688 649.382 331.235 648.801 331.64C648.225 332.04 647.534 332.24 646.729 332.24ZM642.753 335.84V323.36H644.025V329.72H644.185V335.84H642.753ZM646.553 330.936C647.123 330.936 647.595 330.792 647.969 330.504C648.342 330.216 648.622 329.827 648.809 329.336C648.995 328.84 649.089 328.285 649.089 327.672C649.089 327.064 648.995 326.515 648.809 326.024C648.627 325.533 648.345 325.144 647.961 324.856C647.582 324.568 647.099 324.424 646.513 324.424C645.953 324.424 645.489 324.563 645.121 324.84C644.753 325.112 644.478 325.493 644.297 325.984C644.115 326.469 644.025 327.032 644.025 327.672C644.025 328.301 644.113 328.864 644.289 329.36C644.47 329.851 644.747 330.237 645.121 330.52C645.494 330.797 645.971 330.936 646.553 330.936Z" fill="white"/>
<line x1="21" y1="401.5" x2="552" y2="401.5" stroke="white"/>
<g filter="url(#filter9_d_1968_113689)">
<rect x="545" y="382" width="140" height="41" rx="6" fill="#030D17"/>
<rect x="545.715" y="382.715" width="138.57" height="39.57" rx="5.28498" stroke="url(#paint3_linear_1968_113689)" stroke-width="1.43005"/>
</g>
<path d="M558.936 408L555.08 396.48H556.56L559.912 406.488L563.296 396.48H564.776L560.92 408H558.936ZM568.706 408.24C567.848 408.24 567.106 408.045 566.482 407.656C565.864 407.267 565.386 406.728 565.05 406.04C564.714 405.352 564.546 404.563 564.546 403.672C564.546 402.765 564.717 401.971 565.058 401.288C565.4 400.605 565.882 400.075 566.506 399.696C567.13 399.312 567.864 399.12 568.706 399.12C569.57 399.12 570.314 399.315 570.938 399.704C571.562 400.088 572.04 400.624 572.37 401.312C572.706 401.995 572.874 402.781 572.874 403.672C572.874 404.573 572.706 405.368 572.37 406.056C572.034 406.739 571.554 407.275 570.93 407.664C570.306 408.048 569.565 408.24 568.706 408.24ZM568.706 406.888C569.602 406.888 570.269 406.589 570.706 405.992C571.144 405.395 571.362 404.621 571.362 403.672C571.362 402.696 571.141 401.92 570.698 401.344C570.256 400.763 569.592 400.472 568.706 400.472C568.104 400.472 567.608 400.608 567.218 400.88C566.829 401.152 566.538 401.528 566.346 402.008C566.154 402.488 566.058 403.043 566.058 403.672C566.058 404.643 566.282 405.421 566.73 406.008C567.178 406.595 567.837 406.888 568.706 406.888ZM574.796 397.832V396.36H576.22V397.832H574.796ZM574.796 408V399.36H576.22V408H574.796ZM582.26 408.24C581.385 408.24 580.641 408.045 580.028 407.656C579.42 407.261 578.956 406.72 578.636 406.032C578.316 405.344 578.151 404.56 578.14 403.68C578.151 402.779 578.319 401.987 578.644 401.304C578.975 400.616 579.447 400.08 580.06 399.696C580.673 399.312 581.412 399.12 582.276 399.12C583.188 399.12 583.972 399.344 584.628 399.792C585.289 400.24 585.732 400.853 585.956 401.632L584.548 402.056C584.367 401.555 584.071 401.165 583.66 400.888C583.255 400.611 582.788 400.472 582.26 400.472C581.668 400.472 581.18 400.611 580.796 400.888C580.412 401.16 580.127 401.539 579.94 402.024C579.753 402.504 579.657 403.056 579.652 403.68C579.663 404.64 579.884 405.416 580.316 406.008C580.753 406.595 581.401 406.888 582.26 406.888C582.825 406.888 583.295 406.76 583.668 406.504C584.041 406.243 584.324 405.867 584.516 405.376L585.956 405.752C585.657 406.557 585.191 407.173 584.556 407.6C583.921 408.027 583.156 408.24 582.26 408.24ZM591.098 408.24C590.25 408.24 589.509 408.053 588.874 407.68C588.245 407.301 587.754 406.776 587.402 406.104C587.05 405.427 586.874 404.637 586.874 403.736C586.874 402.792 587.048 401.976 587.394 401.288C587.741 400.595 588.224 400.061 588.842 399.688C589.466 399.309 590.197 399.12 591.034 399.12C591.904 399.12 592.642 399.32 593.25 399.72C593.864 400.12 594.322 400.691 594.626 401.432C594.936 402.173 595.069 403.056 595.026 404.08H593.586V403.568C593.57 402.507 593.354 401.715 592.938 401.192C592.522 400.664 591.904 400.4 591.082 400.4C590.202 400.4 589.533 400.683 589.074 401.248C588.616 401.813 588.386 402.624 588.386 403.68C588.386 404.699 588.616 405.488 589.074 406.048C589.533 406.608 590.186 406.888 591.034 406.888C591.605 406.888 592.101 406.757 592.522 406.496C592.944 406.235 593.274 405.859 593.514 405.368L594.882 405.84C594.546 406.603 594.04 407.195 593.362 407.616C592.69 408.032 591.936 408.24 591.098 408.24ZM587.906 404.08V402.936H594.29V404.08H587.906ZM599.211 408L603.067 396.48H605.051L608.907 408H607.427L603.819 397.312H604.267L600.691 408H599.211ZM601.067 405.304V403.968H607.051V405.304H601.067ZM613.603 408.232C612.573 408.232 611.728 408.008 611.067 407.56C610.411 407.107 610.008 406.475 609.859 405.664L611.315 405.432C611.432 405.901 611.701 406.275 612.123 406.552C612.544 406.824 613.067 406.96 613.691 406.96C614.283 406.96 614.747 406.837 615.083 406.592C615.419 406.347 615.587 406.013 615.587 405.592C615.587 405.347 615.531 405.149 615.419 405C615.307 404.845 615.075 404.701 614.723 404.568C614.376 404.435 613.851 404.275 613.147 404.088C612.384 403.885 611.784 403.675 611.347 403.456C610.909 403.237 610.597 402.984 610.411 402.696C610.224 402.408 610.131 402.059 610.131 401.648C610.131 401.141 610.269 400.699 610.547 400.32C610.824 399.936 611.211 399.64 611.707 399.432C612.208 399.224 612.789 399.12 613.451 399.12C614.107 399.12 614.693 399.224 615.211 399.432C615.728 399.64 616.144 399.936 616.459 400.32C616.779 400.699 616.968 401.141 617.027 401.648L615.571 401.912C615.501 401.448 615.277 401.083 614.899 400.816C614.525 400.549 614.043 400.408 613.451 400.392C612.891 400.371 612.435 400.469 612.083 400.688C611.736 400.907 611.563 401.203 611.563 401.576C611.563 401.784 611.627 401.963 611.755 402.112C611.888 402.261 612.131 402.403 612.483 402.536C612.84 402.669 613.357 402.821 614.035 402.992C614.797 403.184 615.397 403.395 615.835 403.624C616.277 403.848 616.592 404.115 616.779 404.424C616.965 404.728 617.059 405.104 617.059 405.552C617.059 406.384 616.752 407.04 616.139 407.52C615.525 407.995 614.68 408.232 613.603 408.232ZM622.087 408.232C621.058 408.232 620.212 408.008 619.551 407.56C618.895 407.107 618.492 406.475 618.343 405.664L619.799 405.432C619.916 405.901 620.186 406.275 620.607 406.552C621.028 406.824 621.551 406.96 622.175 406.96C622.767 406.96 623.231 406.837 623.567 406.592C623.903 406.347 624.071 406.013 624.071 405.592C624.071 405.347 624.015 405.149 623.903 405C623.791 404.845 623.559 404.701 623.207 404.568C622.86 404.435 622.335 404.275 621.631 404.088C620.868 403.885 620.268 403.675 619.831 403.456C619.394 403.237 619.082 402.984 618.895 402.696C618.708 402.408 618.615 402.059 618.615 401.648C618.615 401.141 618.754 400.699 619.031 400.32C619.308 399.936 619.695 399.64 620.191 399.432C620.692 399.224 621.274 399.12 621.935 399.12C622.591 399.12 623.178 399.224 623.695 399.432C624.212 399.64 624.628 399.936 624.943 400.32C625.263 400.699 625.452 401.141 625.511 401.648L624.055 401.912C623.986 401.448 623.762 401.083 623.383 400.816C623.01 400.549 622.527 400.408 621.935 400.392C621.375 400.371 620.919 400.469 620.567 400.688C620.22 400.907 620.047 401.203 620.047 401.576C620.047 401.784 620.111 401.963 620.239 402.112C620.372 402.261 620.615 402.403 620.967 402.536C621.324 402.669 621.842 402.821 622.519 402.992C623.282 403.184 623.882 403.395 624.319 403.624C624.762 403.848 625.076 404.115 625.263 404.424C625.45 404.728 625.543 405.104 625.543 405.552C625.543 406.384 625.236 407.04 624.623 407.52C624.01 407.995 623.164 408.232 622.087 408.232ZM627.468 397.832V396.36H628.892V397.832H627.468ZM627.468 408V399.36H628.892V408H627.468ZM634.556 408.232C633.527 408.232 632.681 408.008 632.02 407.56C631.364 407.107 630.961 406.475 630.812 405.664L632.268 405.432C632.385 405.901 632.655 406.275 633.076 406.552C633.497 406.824 634.02 406.96 634.644 406.96C635.236 406.96 635.7 406.837 636.036 406.592C636.372 406.347 636.54 406.013 636.54 405.592C636.54 405.347 636.484 405.149 636.372 405C636.26 404.845 636.028 404.701 635.676 404.568C635.329 404.435 634.804 404.275 634.1 404.088C633.337 403.885 632.737 403.675 632.3 403.456C631.863 403.237 631.551 402.984 631.364 402.696C631.177 402.408 631.084 402.059 631.084 401.648C631.084 401.141 631.223 400.699 631.5 400.32C631.777 399.936 632.164 399.64 632.66 399.432C633.161 399.224 633.743 399.12 634.404 399.12C635.06 399.12 635.647 399.224 636.164 399.432C636.681 399.64 637.097 399.936 637.412 400.32C637.732 400.699 637.921 401.141 637.98 401.648L636.524 401.912C636.455 401.448 636.231 401.083 635.852 400.816C635.479 400.549 634.996 400.408 634.404 400.392C633.844 400.371 633.388 400.469 633.036 400.688C632.689 400.907 632.516 401.203 632.516 401.576C632.516 401.784 632.58 401.963 632.708 402.112C632.841 402.261 633.084 402.403 633.436 402.536C633.793 402.669 634.311 402.821 634.988 402.992C635.751 403.184 636.351 403.395 636.788 403.624C637.231 403.848 637.545 404.115 637.732 404.424C637.919 404.728 638.012 405.104 638.012 405.552C638.012 406.384 637.705 407.04 637.092 407.52C636.479 407.995 635.633 408.232 634.556 408.232ZM644.6 408C644.088 408.101 643.582 408.141 643.08 408.12C642.584 408.104 642.142 408.005 641.752 407.824C641.363 407.637 641.067 407.349 640.864 406.96C640.694 406.619 640.6 406.275 640.584 405.928C640.574 405.576 640.568 405.179 640.568 404.736V396.96H641.992V404.672C641.992 405.024 641.995 405.325 642 405.576C642.011 405.827 642.067 406.043 642.168 406.224C642.36 406.565 642.664 406.765 643.08 406.824C643.502 406.883 644.008 406.867 644.6 406.776V408ZM638.816 400.536V399.36H644.6V400.536H638.816ZM648.81 408.24C648.165 408.24 647.624 408.123 647.186 407.888C646.754 407.648 646.426 407.333 646.202 406.944C645.984 406.555 645.874 406.128 645.874 405.664C645.874 405.211 645.96 404.819 646.13 404.488C646.306 404.152 646.552 403.875 646.866 403.656C647.181 403.432 647.557 403.256 647.994 403.128C648.405 403.016 648.864 402.92 649.37 402.84C649.882 402.755 650.4 402.677 650.922 402.608C651.445 402.539 651.933 402.472 652.386 402.408L651.874 402.704C651.89 401.936 651.736 401.368 651.41 401C651.09 400.632 650.536 400.448 649.746 400.448C649.224 400.448 648.765 400.568 648.37 400.808C647.981 401.043 647.706 401.427 647.546 401.96L646.194 401.552C646.402 400.795 646.805 400.2 647.402 399.768C648 399.336 648.786 399.12 649.762 399.12C650.546 399.12 651.218 399.261 651.778 399.544C652.344 399.821 652.749 400.243 652.994 400.808C653.117 401.075 653.194 401.365 653.226 401.68C653.258 401.989 653.274 402.315 653.274 402.656V408H652.01V405.928L652.306 406.12C651.981 406.819 651.525 407.347 650.938 407.704C650.357 408.061 649.648 408.24 648.81 408.24ZM649.026 407.048C649.538 407.048 649.981 406.957 650.354 406.776C650.733 406.589 651.037 406.347 651.266 406.048C651.496 405.744 651.645 405.413 651.714 405.056C651.794 404.789 651.837 404.493 651.842 404.168C651.853 403.837 651.858 403.584 651.858 403.408L652.354 403.624C651.89 403.688 651.434 403.749 650.986 403.808C650.538 403.867 650.114 403.931 649.714 404C649.314 404.064 648.954 404.141 648.634 404.232C648.4 404.307 648.178 404.403 647.97 404.52C647.768 404.637 647.602 404.789 647.474 404.976C647.352 405.157 647.29 405.384 647.29 405.656C647.29 405.891 647.349 406.115 647.466 406.328C647.589 406.541 647.776 406.715 648.026 406.848C648.282 406.981 648.616 407.048 649.026 407.048ZM661.506 408V403.672C661.506 403.261 661.469 402.867 661.394 402.488C661.325 402.109 661.2 401.771 661.018 401.472C660.842 401.168 660.602 400.928 660.298 400.752C660 400.576 659.621 400.488 659.162 400.488C658.805 400.488 658.48 400.549 658.186 400.672C657.898 400.789 657.65 400.971 657.442 401.216C657.234 401.461 657.072 401.771 656.954 402.144C656.842 402.512 656.786 402.947 656.786 403.448L655.85 403.16C655.85 402.323 656 401.605 656.298 401.008C656.602 400.405 657.026 399.944 657.57 399.624C658.12 399.299 658.765 399.136 659.506 399.136C660.066 399.136 660.544 399.224 660.938 399.4C661.333 399.576 661.661 399.811 661.922 400.104C662.184 400.392 662.389 400.717 662.538 401.08C662.688 401.437 662.792 401.803 662.85 402.176C662.914 402.544 662.946 402.893 662.946 403.224V408H661.506ZM655.346 408V399.36H656.626V401.672H656.786V408H655.346ZM669.85 408C669.338 408.101 668.832 408.141 668.33 408.12C667.834 408.104 667.392 408.005 667.002 407.824C666.613 407.637 666.317 407.349 666.114 406.96C665.944 406.619 665.85 406.275 665.834 405.928C665.824 405.576 665.818 405.179 665.818 404.736V396.96H667.242V404.672C667.242 405.024 667.245 405.325 667.25 405.576C667.261 405.827 667.317 406.043 667.418 406.224C667.61 406.565 667.914 406.765 668.33 406.824C668.752 406.883 669.258 406.867 669.85 406.776V408ZM664.066 400.536V399.36H669.85V400.536H664.066Z" fill="white"/>
<g filter="url(#filter10_d_1968_113689)">
<circle cx="20" cy="402" r="8" fill="white"/>
<circle cx="20" cy="402" r="5.5" stroke="#0084FF" stroke-width="5"/>
</g>
<defs>
<filter id="filter0_d_1968_113689" x="387" y="24" width="40" height="40" filterUnits="userSpaceOnUse" color-interpolation-filters="sRGB">
<feFlood flood-opacity="0" result="BackgroundImageFix"/>
<feColorMatrix in="SourceAlpha" type="matrix" values="0 0 0 0 0 0 0 0 0 0 0 0 0 0 0 0 0 0 127 0" result="hardAlpha"/>
<feOffset/>
<feGaussianBlur stdDeviation="6"/>
<feComposite in2="hardAlpha" operator="out"/>
<feColorMatrix type="matrix" values="0 0 0 0 0 0 0 0 0 0.517647 0 0 0 0 1 0 0 0 0.6 0"/>
<feBlend mode="normal" in2="BackgroundImageFix" result="effect1_dropShadow_1968_113689"/>
<feBlend mode="normal" in="SourceGraphic" in2="effect1_dropShadow_1968_113689" result="shape"/>
</filter>
<filter id="filter1_bd_1968_113689" x="383" y="20" width="48" height="48" filterUnits="userSpaceOnUse" color-interpolation-filters="sRGB">
<feFlood flood-opacity="0" result="BackgroundImageFix"/>
<feGaussianBlur in="BackgroundImageFix" stdDeviation="8"/>
<feComposite in2="SourceAlpha" operator="in" result="effect1_backgroundBlur_1968_113689"/>
<feColorMatrix in="SourceAlpha" type="matrix" values="0 0 0 0 0 0 0 0 0 0 0 0 0 0 0 0 0 0 127 0" result="hardAlpha"/>
<feOffset/>
<feGaussianBlur stdDeviation="8"/>
<feComposite in2="hardAlpha" operator="out"/>
<feColorMatrix type="matrix" values="0 0 0 0 0 0 0 0 0 0.517647 0 0 0 0 1 0 0 0 0.4 0"/>
<feBlend mode="normal" in2="effect1_backgroundBlur_1968_113689" result="effect2_dropShadow_1968_113689"/>
<feBlend mode="normal" in="SourceGraphic" in2="effect2_dropShadow_1968_113689" result="shape"/>
</filter>
<filter id="filter2_d_1968_113689" x="444" y="0" width="274" height="88" filterUnits="userSpaceOnUse" color-interpolation-filters="sRGB">
<feFlood flood-opacity="0" result="BackgroundImageFix"/>
<feColorMatrix in="SourceAlpha" type="matrix" values="0 0 0 0 0 0 0 0 0 0 0 0 0 0 0 0 0 0 127 0" result="hardAlpha"/>
<feOffset/>
<feGaussianBlur stdDeviation="12"/>
<feComposite in2="hardAlpha" operator="out"/>
<feColorMatrix type="matrix" values="0 0 0 0 0 0 0 0 0 0 0 0 0 0 0 0 0 0 0.25 0"/>
<feBlend mode="normal" in2="BackgroundImageFix" result="effect1_dropShadow_1968_113689"/>
<feBlend mode="normal" in="SourceGraphic" in2="effect1_dropShadow_1968_113689" result="shape"/>
</filter>
<filter id="filter3_d_1968_113689" x="272" y="200" width="40" height="40" filterUnits="userSpaceOnUse" color-interpolation-filters="sRGB">
<feFlood flood-opacity="0" result="BackgroundImageFix"/>
<feColorMatrix in="SourceAlpha" type="matrix" values="0 0 0 0 0 0 0 0 0 0 0 0 0 0 0 0 0 0 127 0" result="hardAlpha"/>
<feOffset/>
<feGaussianBlur stdDeviation="6"/>
<feComposite in2="hardAlpha" operator="out"/>
<feColorMatrix type="matrix" values="0 0 0 0 0 0 0 0 0 0.517647 0 0 0 0 1 0 0 0 0.6 0"/>
<feBlend mode="normal" in2="BackgroundImageFix" result="effect1_dropShadow_1968_113689"/>
<feBlend mode="normal" in="SourceGraphic" in2="effect1_dropShadow_1968_113689" result="shape"/>
</filter>
<filter id="filter4_bd_1968_113689" x="268" y="196" width="48" height="48" filterUnits="userSpaceOnUse" color-interpolation-filters="sRGB">
<feFlood flood-opacity="0" result="BackgroundImageFix"/>
<feGaussianBlur in="BackgroundImageFix" stdDeviation="8"/>
<feComposite in2="SourceAlpha" operator="in" result="effect1_backgroundBlur_1968_113689"/>
<feColorMatrix in="SourceAlpha" type="matrix" values="0 0 0 0 0 0 0 0 0 0 0 0 0 0 0 0 0 0 127 0" result="hardAlpha"/>
<feOffset/>
<feGaussianBlur stdDeviation="8"/>
<feComposite in2="hardAlpha" operator="out"/>
<feColorMatrix type="matrix" values="0 0 0 0 0 0 0 0 0 0.517647 0 0 0 0 1 0 0 0 0.4 0"/>
<feBlend mode="normal" in2="effect1_backgroundBlur_1968_113689" result="effect2_dropShadow_1968_113689"/>
<feBlend mode="normal" in="SourceGraphic" in2="effect2_dropShadow_1968_113689" result="shape"/>
</filter>
<filter id="filter5_d_1968_113689" x="443" y="139" width="178" height="88" filterUnits="userSpaceOnUse" color-interpolation-filters="sRGB">
<feFlood flood-opacity="0" result="BackgroundImageFix"/>
<feColorMatrix in="SourceAlpha" type="matrix" values="0 0 0 0 0 0 0 0 0 0 0 0 0 0 0 0 0 0 127 0" result="hardAlpha"/>
<feOffset/>
<feGaussianBlur stdDeviation="12"/>
<feComposite in2="hardAlpha" operator="out"/>
<feColorMatrix type="matrix" values="0 0 0 0 0 0 0 0 0 0 0 0 0 0 0 0 0 0 0.25 0"/>
<feBlend mode="normal" in2="BackgroundImageFix" result="effect1_dropShadow_1968_113689"/>
<feBlend mode="normal" in="SourceGraphic" in2="effect1_dropShadow_1968_113689" result="shape"/>
</filter>
<filter id="filter6_d_1968_113689" x="500" y="282" width="40" height="40" filterUnits="userSpaceOnUse" color-interpolation-filters="sRGB">
<feFlood flood-opacity="0" result="BackgroundImageFix"/>
<feColorMatrix in="SourceAlpha" type="matrix" values="0 0 0 0 0 0 0 0 0 0 0 0 0 0 0 0 0 0 127 0" result="hardAlpha"/>
<feOffset/>
<feGaussianBlur stdDeviation="6"/>
<feComposite in2="hardAlpha" operator="out"/>
<feColorMatrix type="matrix" values="0 0 0 0 0 0 0 0 0 0.517647 0 0 0 0 1 0 0 0 0.6 0"/>
<feBlend mode="normal" in2="BackgroundImageFix" result="effect1_dropShadow_1968_113689"/>
<feBlend mode="normal" in="SourceGraphic" in2="effect1_dropShadow_1968_113689" result="shape"/>
</filter>
<filter id="filter7_bd_1968_113689" x="496" y="278" width="48" height="48" filterUnits="userSpaceOnUse" color-interpolation-filters="sRGB">
<feFlood flood-opacity="0" result="BackgroundImageFix"/>
<feGaussianBlur in="BackgroundImageFix" stdDeviation="8"/>
<feComposite in2="SourceAlpha" operator="in" result="effect1_backgroundBlur_1968_113689"/>
<feColorMatrix in="SourceAlpha" type="matrix" values="0 0 0 0 0 0 0 0 0 0 0 0 0 0 0 0 0 0 127 0" result="hardAlpha"/>
<feOffset/>
<feGaussianBlur stdDeviation="8"/>
<feComposite in2="hardAlpha" operator="out"/>
<feColorMatrix type="matrix" values="0 0 0 0 0 0 0 0 0 0.517647 0 0 0 0 1 0 0 0 0.4 0"/>
<feBlend mode="normal" in2="effect1_backgroundBlur_1968_113689" result="effect2_dropShadow_1968_113689"/>
<feBlend mode="normal" in="SourceGraphic" in2="effect2_dropShadow_1968_113689" result="shape"/>
</filter>
<filter id="filter8_d_1968_113689" x="526" y="258" width="169" height="114" filterUnits="userSpaceOnUse" color-interpolation-filters="sRGB">
<feFlood flood-opacity="0" result="BackgroundImageFix"/>
<feColorMatrix in="SourceAlpha" type="matrix" values="0 0 0 0 0 0 0 0 0 0 0 0 0 0 0 0 0 0 127 0" result="hardAlpha"/>
<feOffset/>
<feGaussianBlur stdDeviation="12"/>
<feComposite in2="hardAlpha" operator="out"/>
<feColorMatrix type="matrix" values="0 0 0 0 0 0 0 0 0 0 0 0 0 0 0 0 0 0 0.25 0"/>
<feBlend mode="normal" in2="BackgroundImageFix" result="effect1_dropShadow_1968_113689"/>
<feBlend mode="normal" in="SourceGraphic" in2="effect1_dropShadow_1968_113689" result="shape"/>
</filter>
<filter id="filter9_d_1968_113689" x="521" y="358" width="188" height="89" filterUnits="userSpaceOnUse" color-interpolation-filters="sRGB">
<feFlood flood-opacity="0" result="BackgroundImageFix"/>
<feColorMatrix in="SourceAlpha" type="matrix" values="0 0 0 0 0 0 0 0 0 0 0 0 0 0 0 0 0 0 127 0" result="hardAlpha"/>
<feOffset/>
<feGaussianBlur stdDeviation="12"/>
<feComposite in2="hardAlpha" operator="out"/>
<feColorMatrix type="matrix" values="0 0 0 0 0 0 0 0 0 0 0 0 0 0 0 0 0 0 0.25 0"/>
<feBlend mode="normal" in2="BackgroundImageFix" result="effect1_dropShadow_1968_113689"/>
<feBlend mode="normal" in="SourceGraphic" in2="effect1_dropShadow_1968_113689" result="shape"/>
</filter>
<filter id="filter10_d_1968_113689" x="0" y="382" width="40" height="40" filterUnits="userSpaceOnUse" color-interpolation-filters="sRGB">
<feFlood flood-opacity="0" result="BackgroundImageFix"/>
<feColorMatrix in="SourceAlpha" type="matrix" values="0 0 0 0 0 0 0 0 0 0 0 0 0 0 0 0 0 0 127 0" result="hardAlpha"/>
<feOffset/>
<feGaussianBlur stdDeviation="6"/>
<feComposite in2="hardAlpha" operator="out"/>
<feColorMatrix type="matrix" values="0 0 0 0 0 0 0 0 0 0.517647 0 0 0 0 1 0 0 0 0.6 0"/>
<feBlend mode="normal" in2="BackgroundImageFix" result="effect1_dropShadow_1968_113689"/>
<feBlend mode="normal" in="SourceGraphic" in2="effect1_dropShadow_1968_113689" result="shape"/>
</filter>
<linearGradient id="paint0_linear_1968_113689" x1="483.679" y1="30.8965" x2="670.313" y2="105.611" gradientUnits="userSpaceOnUse">
<stop stop-color="#0084FF"/>
<stop offset="1" stop-color="#936AFF"/>
</linearGradient>
<linearGradient id="paint1_linear_1968_113689" x1="476.019" y1="169.897" x2="594.307" y2="197.135" gradientUnits="userSpaceOnUse">
<stop stop-color="#0084FF"/>
<stop offset="1" stop-color="#936AFF"/>
</linearGradient>
<linearGradient id="paint2_linear_1968_113689" x1="558.395" y1="293.379" x2="672.408" y2="308.19" gradientUnits="userSpaceOnUse">
<stop stop-color="#0084FF"/>
<stop offset="1" stop-color="#936AFF"/>
</linearGradient>
<linearGradient id="paint3_linear_1968_113689" x1="554.713" y1="389.069" x2="681.437" y2="419.729" gradientUnits="userSpaceOnUse">
<stop stop-color="#0084FF"/>
<stop offset="1" stop-color="#936AFF"/>
</linearGradient>
</defs>
</svg>
