<svg width="376" height="491" viewBox="0 0 376 491" fill="none" xmlns="http://www.w3.org/2000/svg">
<path d="M356 107L356 44L184 44" stroke="white"/>
<g filter="url(#filter0_d_2233_105994)">
<rect x="38" y="24" width="146" height="40" rx="6" fill="#030D17"/>
<rect x="38.715" y="24.715" width="144.57" height="38.57" rx="5.28498" stroke="url(#paint0_linear_2233_105994)" stroke-width="1.43005"/>
</g>
<path d="M53.664 50.24C52.7733 50.24 51.9867 50.056 51.304 49.688C50.6213 49.32 50.0853 48.8053 49.696 48.144C49.312 47.4773 49.12 46.696 49.12 45.8V38.488L50.56 38.48V45.68C50.56 46.224 50.6507 46.6987 50.832 47.104C51.0187 47.504 51.264 47.8373 51.568 48.104C51.872 48.3707 52.2053 48.5707 52.568 48.704C52.936 48.832 53.3013 48.896 53.664 48.896C54.032 48.896 54.4 48.8293 54.768 48.696C55.136 48.5627 55.4693 48.3653 55.768 48.104C56.072 47.8373 56.3147 47.5013 56.496 47.096C56.6773 46.6907 56.768 46.2187 56.768 45.68V38.48H58.208V45.8C58.208 46.6907 58.0133 47.4693 57.624 48.136C57.24 48.8027 56.7067 49.32 56.024 49.688C55.3413 50.056 54.5547 50.24 53.664 50.24ZM66.6001 50V45.672C66.6001 45.2613 66.5628 44.8667 66.4881 44.488C66.4188 44.1093 66.2935 43.7707 66.1121 43.472C65.9361 43.168 65.6961 42.928 65.3921 42.752C65.0935 42.576 64.7148 42.488 64.2561 42.488C63.8988 42.488 63.5735 42.5493 63.2801 42.672C62.9921 42.7893 62.7441 42.9707 62.5361 43.216C62.3281 43.4613 62.1655 43.7707 62.0481 44.144C61.9361 44.512 61.8801 44.9467 61.8801 45.448L60.9441 45.16C60.9441 44.3227 61.0935 43.6053 61.3921 43.008C61.6961 42.4053 62.1201 41.944 62.6641 41.624C63.2135 41.2987 63.8588 41.136 64.6001 41.136C65.1601 41.136 65.6375 41.224 66.0321 41.4C66.4268 41.576 66.7548 41.8107 67.0161 42.104C67.2775 42.392 67.4828 42.7173 67.6321 43.08C67.7815 43.4373 67.8855 43.8027 67.9441 44.176C68.0081 44.544 68.0401 44.8933 68.0401 45.224V50H66.6001ZM60.4401 50V41.36H61.7201V43.672H61.8801V50H60.4401ZM70.28 39.832V38.36H71.704V39.832H70.28ZM70.28 50V41.36H71.704V50H70.28ZM76.4404 50L73.3044 41.36H74.7444L77.1684 48.184L79.5844 41.36H81.0324L77.8964 50H76.4404ZM85.9109 50.24C85.0629 50.24 84.3215 50.0533 83.6869 49.68C83.0575 49.3013 82.5669 48.776 82.2149 48.104C81.8629 47.4267 81.6869 46.6373 81.6869 45.736C81.6869 44.792 81.8602 43.976 82.2069 43.288C82.5535 42.5947 83.0362 42.0613 83.6549 41.688C84.2789 41.3093 85.0095 41.12 85.8469 41.12C86.7162 41.12 87.4549 41.32 88.0629 41.72C88.6762 42.12 89.1349 42.6907 89.4389 43.432C89.7482 44.1733 89.8815 45.056 89.8389 46.08H88.3989V45.568C88.3829 44.5067 88.1669 43.7147 87.7509 43.192C87.3349 42.664 86.7162 42.4 85.8949 42.4C85.0149 42.4 84.3455 42.6827 83.8869 43.248C83.4282 43.8133 83.1989 44.624 83.1989 45.68C83.1989 46.6987 83.4282 47.488 83.8869 48.048C84.3455 48.608 84.9989 48.888 85.8469 48.888C86.4175 48.888 86.9135 48.7573 87.3349 48.496C87.7562 48.2347 88.0869 47.8587 88.3269 47.368L89.6949 47.84C89.3589 48.6027 88.8522 49.1947 88.1749 49.616C87.5029 50.032 86.7482 50.24 85.9109 50.24ZM82.7189 46.08V44.936H89.1029V46.08H82.7189ZM91.62 50V41.36H92.892V43.448L92.684 43.176C92.7853 42.9093 92.916 42.664 93.076 42.44C93.2413 42.216 93.4253 42.032 93.628 41.888C93.852 41.7067 94.1053 41.568 94.388 41.472C94.6707 41.376 94.9587 41.32 95.252 41.304C95.5453 41.2827 95.82 41.3013 96.076 41.36V42.696C95.7773 42.616 95.4493 42.5947 95.092 42.632C94.7347 42.6693 94.404 42.8 94.1 43.024C93.8227 43.2213 93.6067 43.4613 93.452 43.744C93.3027 44.0267 93.1987 44.3333 93.14 44.664C93.0813 44.9893 93.052 45.3227 93.052 45.664V50H91.62ZM100.54 50.232C99.5109 50.232 98.6656 50.008 98.0043 49.56C97.3483 49.1067 96.9456 48.4747 96.7963 47.664L98.2523 47.432C98.3696 47.9013 98.6389 48.2747 99.0603 48.552C99.4816 48.824 100.004 48.96 100.628 48.96C101.22 48.96 101.684 48.8373 102.02 48.592C102.356 48.3467 102.524 48.0133 102.524 47.592C102.524 47.3467 102.468 47.1493 102.356 47C102.244 46.8453 102.012 46.7013 101.66 46.568C101.314 46.4347 100.788 46.2747 100.084 46.088C99.3216 45.8853 98.7216 45.6747 98.2843 45.456C97.8469 45.2373 97.5349 44.984 97.3483 44.696C97.1616 44.408 97.0683 44.0587 97.0683 43.648C97.0683 43.1413 97.2069 42.6987 97.4843 42.32C97.7616 41.936 98.1483 41.64 98.6443 41.432C99.1456 41.224 99.7269 41.12 100.388 41.12C101.044 41.12 101.631 41.224 102.148 41.432C102.666 41.64 103.082 41.936 103.396 42.32C103.716 42.6987 103.906 43.1413 103.964 43.648L102.508 43.912C102.439 43.448 102.215 43.0827 101.836 42.816C101.463 42.5493 100.98 42.408 100.388 42.392C99.8283 42.3707 99.3723 42.4693 99.0203 42.688C98.6736 42.9067 98.5003 43.2027 98.5003 43.576C98.5003 43.784 98.5643 43.9627 98.6923 44.112C98.8256 44.2613 99.0683 44.4027 99.4203 44.536C99.7776 44.6693 100.295 44.8213 100.972 44.992C101.735 45.184 102.335 45.3947 102.772 45.624C103.215 45.848 103.53 46.1147 103.716 46.424C103.903 46.728 103.996 47.104 103.996 47.552C103.996 48.384 103.69 49.04 103.076 49.52C102.463 49.9947 101.618 50.232 100.54 50.232ZM108.217 50.24C107.571 50.24 107.03 50.1227 106.593 49.888C106.161 49.648 105.833 49.3333 105.609 48.944C105.39 48.5547 105.281 48.128 105.281 47.664C105.281 47.2107 105.366 46.8187 105.537 46.488C105.713 46.152 105.958 45.8747 106.273 45.656C106.587 45.432 106.963 45.256 107.401 45.128C107.811 45.016 108.27 44.92 108.777 44.84C109.289 44.7547 109.806 44.6773 110.329 44.608C110.851 44.5387 111.339 44.472 111.793 44.408L111.281 44.704C111.297 43.936 111.142 43.368 110.817 43C110.497 42.632 109.942 42.448 109.153 42.448C108.63 42.448 108.171 42.568 107.777 42.808C107.387 43.0427 107.113 43.4267 106.953 43.96L105.601 43.552C105.809 42.7947 106.211 42.2 106.809 41.768C107.406 41.336 108.193 41.12 109.169 41.12C109.953 41.12 110.625 41.2613 111.185 41.544C111.75 41.8213 112.155 42.2427 112.401 42.808C112.523 43.0747 112.601 43.3653 112.633 43.68C112.665 43.9893 112.681 44.3147 112.681 44.656V50H111.417V47.928L111.713 48.12C111.387 48.8187 110.931 49.3467 110.345 49.704C109.763 50.0613 109.054 50.24 108.217 50.24ZM108.433 49.048C108.945 49.048 109.387 48.9573 109.761 48.776C110.139 48.5893 110.443 48.3467 110.673 48.048C110.902 47.744 111.051 47.4133 111.121 47.056C111.201 46.7893 111.243 46.4933 111.249 46.168C111.259 45.8373 111.265 45.584 111.265 45.408L111.761 45.624C111.297 45.688 110.841 45.7493 110.393 45.808C109.945 45.8667 109.521 45.9307 109.121 46C108.721 46.064 108.361 46.1413 108.041 46.232C107.806 46.3067 107.585 46.4027 107.377 46.52C107.174 46.6373 107.009 46.7893 106.881 46.976C106.758 47.1573 106.697 47.384 106.697 47.656C106.697 47.8907 106.755 48.1147 106.873 48.328C106.995 48.5413 107.182 48.7147 107.433 48.848C107.689 48.9813 108.022 49.048 108.433 49.048ZM114.921 50V38.24H116.345V50H114.921ZM126.036 50.24C125.22 50.24 124.484 50.1013 123.828 49.824C123.177 49.5467 122.639 49.152 122.212 48.64C121.791 48.1227 121.516 47.512 121.388 46.808L122.86 46.576C123.047 47.3013 123.433 47.8693 124.02 48.28C124.612 48.6853 125.308 48.888 126.108 48.888C126.625 48.888 127.092 48.808 127.508 48.648C127.929 48.4827 128.263 48.248 128.508 47.944C128.753 47.64 128.876 47.28 128.876 46.864C128.876 46.608 128.831 46.3893 128.74 46.208C128.655 46.0213 128.535 45.864 128.38 45.736C128.231 45.6027 128.06 45.4907 127.868 45.4C127.676 45.3093 127.476 45.2347 127.268 45.176L124.332 44.304C124.012 44.208 123.703 44.088 123.404 43.944C123.105 43.7947 122.839 43.6107 122.604 43.392C122.369 43.168 122.183 42.9013 122.044 42.592C121.905 42.2773 121.836 41.9067 121.836 41.48C121.836 40.7973 122.012 40.216 122.364 39.736C122.721 39.2507 123.204 38.88 123.812 38.624C124.42 38.368 125.105 38.2427 125.868 38.248C126.641 38.2533 127.332 38.392 127.94 38.664C128.553 38.9307 129.06 39.3147 129.46 39.816C129.865 40.3173 130.137 40.9173 130.276 41.616L128.764 41.88C128.684 41.4107 128.505 41.008 128.228 40.672C127.956 40.3307 127.615 40.0693 127.204 39.888C126.793 39.7013 126.343 39.6053 125.852 39.6C125.383 39.5947 124.959 39.6693 124.58 39.824C124.201 39.9787 123.9 40.1947 123.676 40.472C123.452 40.744 123.34 41.0587 123.34 41.416C123.34 41.768 123.441 42.0533 123.644 42.272C123.847 42.4853 124.095 42.656 124.388 42.784C124.687 42.9067 124.977 43.008 125.26 43.088L127.452 43.72C127.703 43.7893 127.991 43.8853 128.316 44.008C128.647 44.1307 128.967 44.304 129.276 44.528C129.585 44.7467 129.841 45.04 130.044 45.408C130.247 45.7707 130.348 46.2293 130.348 46.784C130.348 47.3387 130.236 47.832 130.012 48.264C129.793 48.696 129.487 49.0587 129.092 49.352C128.697 49.64 128.239 49.8587 127.716 50.008C127.193 50.1627 126.633 50.24 126.036 50.24ZM135.77 50.24C134.922 50.24 134.181 50.0533 133.546 49.68C132.917 49.3013 132.426 48.776 132.074 48.104C131.722 47.4267 131.546 46.6373 131.546 45.736C131.546 44.792 131.72 43.976 132.066 43.288C132.413 42.5947 132.896 42.0613 133.514 41.688C134.138 41.3093 134.869 41.12 135.706 41.12C136.576 41.12 137.314 41.32 137.922 41.72C138.536 42.12 138.994 42.6907 139.298 43.432C139.608 44.1733 139.741 45.056 139.698 46.08H138.258V45.568C138.242 44.5067 138.026 43.7147 137.61 43.192C137.194 42.664 136.576 42.4 135.754 42.4C134.874 42.4 134.205 42.6827 133.746 43.248C133.288 43.8133 133.058 44.624 133.058 45.68C133.058 46.6987 133.288 47.488 133.746 48.048C134.205 48.608 134.858 48.888 135.706 48.888C136.277 48.888 136.773 48.7573 137.194 48.496C137.616 48.2347 137.946 47.8587 138.186 47.368L139.554 47.84C139.218 48.6027 138.712 49.1947 138.034 49.616C137.362 50.032 136.608 50.24 135.77 50.24ZM132.578 46.08V44.936H138.962V46.08H132.578ZM143.779 50.24C143.134 50.24 142.592 50.1227 142.155 49.888C141.723 49.648 141.395 49.3333 141.171 48.944C140.952 48.5547 140.843 48.128 140.843 47.664C140.843 47.2107 140.928 46.8187 141.099 46.488C141.275 46.152 141.52 45.8747 141.835 45.656C142.15 45.432 142.526 45.256 142.963 45.128C143.374 45.016 143.832 44.92 144.339 44.84C144.851 44.7547 145.368 44.6773 145.891 44.608C146.414 44.5387 146.902 44.472 147.355 44.408L146.843 44.704C146.859 43.936 146.704 43.368 146.379 43C146.059 42.632 145.504 42.448 144.715 42.448C144.192 42.448 143.734 42.568 143.339 42.808C142.95 43.0427 142.675 43.4267 142.515 43.96L141.163 43.552C141.371 42.7947 141.774 42.2 142.371 41.768C142.968 41.336 143.755 41.12 144.731 41.12C145.515 41.12 146.187 41.2613 146.747 41.544C147.312 41.8213 147.718 42.2427 147.963 42.808C148.086 43.0747 148.163 43.3653 148.195 43.68C148.227 43.9893 148.243 44.3147 148.243 44.656V50H146.979V47.928L147.275 48.12C146.95 48.8187 146.494 49.3467 145.907 49.704C145.326 50.0613 144.616 50.24 143.779 50.24ZM143.995 49.048C144.507 49.048 144.95 48.9573 145.323 48.776C145.702 48.5893 146.006 48.3467 146.235 48.048C146.464 47.744 146.614 47.4133 146.683 47.056C146.763 46.7893 146.806 46.4933 146.811 46.168C146.822 45.8373 146.827 45.584 146.827 45.408L147.323 45.624C146.859 45.688 146.403 45.7493 145.955 45.808C145.507 45.8667 145.083 45.9307 144.683 46C144.283 46.064 143.923 46.1413 143.603 46.232C143.368 46.3067 143.147 46.4027 142.939 46.52C142.736 46.6373 142.571 46.7893 142.443 46.976C142.32 47.1573 142.259 47.384 142.259 47.656C142.259 47.8907 142.318 48.1147 142.435 48.328C142.558 48.5413 142.744 48.7147 142.995 48.848C143.251 48.9813 143.584 49.048 143.995 49.048ZM150.323 50V41.36H151.595V43.448L151.387 43.176C151.488 42.9093 151.619 42.664 151.779 42.44C151.944 42.216 152.128 42.032 152.331 41.888C152.555 41.7067 152.808 41.568 153.091 41.472C153.374 41.376 153.662 41.32 153.955 41.304C154.248 41.2827 154.523 41.3013 154.779 41.36V42.696C154.48 42.616 154.152 42.5947 153.795 42.632C153.438 42.6693 153.107 42.8 152.803 43.024C152.526 43.2213 152.31 43.4613 152.155 43.744C152.006 44.0267 151.902 44.3333 151.843 44.664C151.784 44.9893 151.755 45.3227 151.755 45.664V50H150.323ZM159.776 50.24C158.901 50.24 158.157 50.0453 157.544 49.656C156.936 49.2613 156.472 48.72 156.152 48.032C155.832 47.344 155.666 46.56 155.656 45.68C155.666 44.7787 155.834 43.9867 156.16 43.304C156.49 42.616 156.962 42.08 157.576 41.696C158.189 41.312 158.928 41.12 159.792 41.12C160.704 41.12 161.488 41.344 162.144 41.792C162.805 42.24 163.248 42.8533 163.472 43.632L162.064 44.056C161.882 43.5547 161.586 43.1653 161.176 42.888C160.77 42.6107 160.304 42.472 159.776 42.472C159.184 42.472 158.696 42.6107 158.312 42.888C157.928 43.16 157.642 43.5387 157.456 44.024C157.269 44.504 157.173 45.056 157.168 45.68C157.178 46.64 157.4 47.416 157.832 48.008C158.269 48.5947 158.917 48.888 159.776 48.888C160.341 48.888 160.81 48.76 161.184 48.504C161.557 48.2427 161.84 47.8667 162.032 47.376L163.472 47.752C163.173 48.5573 162.706 49.1733 162.072 49.6C161.437 50.0267 160.672 50.24 159.776 50.24ZM171.256 50V45.672C171.256 45.2613 171.219 44.8667 171.144 44.488C171.075 44.1093 170.95 43.7707 170.768 43.472C170.592 43.168 170.352 42.928 170.048 42.752C169.75 42.576 169.371 42.488 168.912 42.488C168.555 42.488 168.23 42.5493 167.936 42.672C167.648 42.7893 167.4 42.9707 167.192 43.216C166.984 43.4613 166.822 43.7707 166.704 44.144C166.592 44.512 166.536 44.9467 166.536 45.448L165.6 45.16C165.6 44.3227 165.75 43.6053 166.048 43.008C166.352 42.4053 166.776 41.944 167.32 41.624C167.87 41.2987 168.515 41.136 169.256 41.136C169.816 41.136 170.294 41.224 170.688 41.4C171.083 41.576 171.411 41.8107 171.672 42.104C171.934 42.392 172.139 42.7173 172.288 43.08C172.438 43.4373 172.542 43.8027 172.6 44.176C172.664 44.544 172.696 44.8933 172.696 45.224V50H171.256ZM165.096 50V38.48H166.376V44.84H166.536V50H165.096Z" fill="white"/>
<g filter="url(#filter1_d_2233_105994)">
<circle cx="356" cy="107" r="8" transform="rotate(-90 356 107)" fill="white"/>
<circle cx="356" cy="107" r="6" transform="rotate(-90 356 107)" stroke="#0084FF" stroke-width="4"/>
</g>
<line x1="305" y1="176.5" x2="184" y2="176.5" stroke="white"/>
<g filter="url(#filter2_d_2233_105994)">
<rect x="68" y="156" width="116" height="40" rx="6" fill="#030D17"/>
<rect x="68.715" y="156.715" width="114.57" height="38.57" rx="5.28498" stroke="url(#paint1_linear_2233_105994)" stroke-width="1.43005"/>
</g>
<path d="M83.664 182.24C82.7733 182.24 81.9867 182.056 81.304 181.688C80.6213 181.32 80.0853 180.805 79.696 180.144C79.312 179.477 79.12 178.696 79.12 177.8V170.488L80.56 170.48V177.68C80.56 178.224 80.6507 178.699 80.832 179.104C81.0187 179.504 81.264 179.837 81.568 180.104C81.872 180.371 82.2053 180.571 82.568 180.704C82.936 180.832 83.3013 180.896 83.664 180.896C84.032 180.896 84.4 180.829 84.768 180.696C85.136 180.563 85.4693 180.365 85.768 180.104C86.072 179.837 86.3147 179.501 86.496 179.096C86.6773 178.691 86.768 178.219 86.768 177.68V170.48H88.208V177.8C88.208 178.691 88.0133 179.469 87.624 180.136C87.24 180.803 86.7067 181.32 86.024 181.688C85.3413 182.056 84.5547 182.24 83.664 182.24ZM93.7121 182.232C92.6828 182.232 91.8375 182.008 91.1761 181.56C90.5201 181.107 90.1175 180.475 89.9681 179.664L91.4241 179.432C91.5415 179.901 91.8108 180.275 92.2321 180.552C92.6535 180.824 93.1761 180.96 93.8001 180.96C94.3921 180.96 94.8561 180.837 95.1921 180.592C95.5281 180.347 95.6961 180.013 95.6961 179.592C95.6961 179.347 95.6401 179.149 95.5281 179C95.4161 178.845 95.1841 178.701 94.8321 178.568C94.4855 178.435 93.9601 178.275 93.2561 178.088C92.4935 177.885 91.8935 177.675 91.4561 177.456C91.0188 177.237 90.7068 176.984 90.5201 176.696C90.3335 176.408 90.2401 176.059 90.2401 175.648C90.2401 175.141 90.3788 174.699 90.6561 174.32C90.9335 173.936 91.3201 173.64 91.8161 173.432C92.3175 173.224 92.8988 173.12 93.5601 173.12C94.2161 173.12 94.8028 173.224 95.3201 173.432C95.8375 173.64 96.2535 173.936 96.5681 174.32C96.8881 174.699 97.0775 175.141 97.1361 175.648L95.6801 175.912C95.6108 175.448 95.3868 175.083 95.0081 174.816C94.6348 174.549 94.1521 174.408 93.5601 174.392C93.0001 174.371 92.5441 174.469 92.1921 174.688C91.8455 174.907 91.6721 175.203 91.6721 175.576C91.6721 175.784 91.7361 175.963 91.8641 176.112C91.9975 176.261 92.2401 176.403 92.5921 176.536C92.9495 176.669 93.4668 176.821 94.1441 176.992C94.9068 177.184 95.5068 177.395 95.9441 177.624C96.3868 177.848 96.7015 178.115 96.8881 178.424C97.0748 178.728 97.1681 179.104 97.1681 179.552C97.1681 180.384 96.8615 181.04 96.2481 181.52C95.6348 181.995 94.7895 182.232 93.7121 182.232ZM102.677 182.24C101.829 182.24 101.087 182.053 100.453 181.68C99.8232 181.301 99.3325 180.776 98.9805 180.104C98.6285 179.427 98.4525 178.637 98.4525 177.736C98.4525 176.792 98.6258 175.976 98.9725 175.288C99.3192 174.595 99.8018 174.061 100.421 173.688C101.045 173.309 101.775 173.12 102.613 173.12C103.482 173.12 104.221 173.32 104.829 173.72C105.442 174.12 105.901 174.691 106.205 175.432C106.514 176.173 106.647 177.056 106.605 178.08H105.165V177.568C105.149 176.507 104.933 175.715 104.517 175.192C104.101 174.664 103.482 174.4 102.661 174.4C101.781 174.4 101.111 174.683 100.653 175.248C100.194 175.813 99.9645 176.624 99.9645 177.68C99.9645 178.699 100.194 179.488 100.653 180.048C101.111 180.608 101.765 180.888 102.613 180.888C103.183 180.888 103.679 180.757 104.101 180.496C104.522 180.235 104.853 179.859 105.093 179.368L106.461 179.84C106.125 180.603 105.618 181.195 104.941 181.616C104.269 182.032 103.514 182.24 102.677 182.24ZM99.4845 178.08V176.936H105.869V178.08H99.4845ZM108.386 182V173.36H109.658V175.448L109.45 175.176C109.551 174.909 109.682 174.664 109.842 174.44C110.007 174.216 110.191 174.032 110.394 173.888C110.618 173.707 110.871 173.568 111.154 173.472C111.436 173.376 111.724 173.32 112.018 173.304C112.311 173.283 112.586 173.301 112.842 173.36V174.696C112.543 174.616 112.215 174.595 111.858 174.632C111.5 174.669 111.17 174.8 110.866 175.024C110.588 175.221 110.372 175.461 110.218 175.744C110.068 176.027 109.964 176.333 109.906 176.664C109.847 176.989 109.818 177.323 109.818 177.664V182H108.386ZM117.558 182V170.48H122.11C122.222 170.48 122.355 170.485 122.51 170.496C122.664 170.501 122.814 170.517 122.958 170.544C123.582 170.64 124.104 170.853 124.526 171.184C124.952 171.515 125.272 171.933 125.486 172.44C125.699 172.941 125.806 173.499 125.806 174.112C125.806 174.72 125.696 175.277 125.477 175.784C125.264 176.285 124.944 176.704 124.517 177.04C124.096 177.371 123.576 177.584 122.958 177.68C122.814 177.701 122.664 177.717 122.51 177.728C122.355 177.739 122.222 177.744 122.11 177.744H118.982V182H117.558ZM118.982 176.392H122.062C122.163 176.392 122.278 176.387 122.406 176.376C122.539 176.365 122.664 176.347 122.782 176.32C123.15 176.235 123.448 176.08 123.678 175.856C123.912 175.627 124.083 175.36 124.19 175.056C124.296 174.747 124.35 174.432 124.35 174.112C124.35 173.792 124.296 173.48 124.19 173.176C124.083 172.867 123.912 172.597 123.678 172.368C123.448 172.139 123.15 171.984 122.782 171.904C122.664 171.872 122.539 171.853 122.406 171.848C122.278 171.837 122.163 171.832 122.062 171.832H118.982V176.392ZM127.401 182V173.36H128.673V175.448L128.465 175.176C128.567 174.909 128.697 174.664 128.857 174.44C129.023 174.216 129.207 174.032 129.409 173.888C129.633 173.707 129.887 173.568 130.169 173.472C130.452 173.376 130.74 173.32 131.033 173.304C131.327 173.283 131.601 173.301 131.857 173.36V174.696C131.559 174.616 131.231 174.595 130.873 174.632C130.516 174.669 130.185 174.8 129.881 175.024C129.604 175.221 129.388 175.461 129.233 175.744C129.084 176.027 128.98 176.333 128.921 176.664C128.863 176.989 128.833 177.323 128.833 177.664V182H127.401ZM136.894 182.24C136.035 182.24 135.294 182.045 134.67 181.656C134.051 181.267 133.574 180.728 133.238 180.04C132.902 179.352 132.734 178.563 132.734 177.672C132.734 176.765 132.904 175.971 133.246 175.288C133.587 174.605 134.07 174.075 134.694 173.696C135.318 173.312 136.051 173.12 136.894 173.12C137.758 173.12 138.502 173.315 139.126 173.704C139.75 174.088 140.227 174.624 140.558 175.312C140.894 175.995 141.062 176.781 141.062 177.672C141.062 178.573 140.894 179.368 140.558 180.056C140.222 180.739 139.742 181.275 139.118 181.664C138.494 182.048 137.752 182.24 136.894 182.24ZM136.894 180.888C137.79 180.888 138.456 180.589 138.894 179.992C139.331 179.395 139.55 178.621 139.55 177.672C139.55 176.696 139.328 175.92 138.886 175.344C138.443 174.763 137.779 174.472 136.894 174.472C136.291 174.472 135.795 174.608 135.406 174.88C135.016 175.152 134.726 175.528 134.534 176.008C134.342 176.488 134.246 177.043 134.246 177.672C134.246 178.643 134.47 179.421 134.918 180.008C135.366 180.595 136.024 180.888 136.894 180.888ZM143.647 182V172.888C143.647 172.664 143.658 172.437 143.679 172.208C143.7 171.973 143.748 171.747 143.823 171.528C143.898 171.304 144.02 171.099 144.191 170.912C144.388 170.693 144.604 170.539 144.839 170.448C145.074 170.352 145.311 170.293 145.551 170.272C145.796 170.251 146.028 170.24 146.247 170.24H147.343V171.424H146.327C145.906 171.424 145.591 171.528 145.383 171.736C145.175 171.939 145.071 172.248 145.071 172.664V182H143.647ZM142.183 174.536V173.36H147.343V174.536H142.183ZM149.023 171.832V170.36H150.447V171.832H149.023ZM149.023 182V173.36H150.447V182H149.023ZM153.014 182V170.24H154.438V182H153.014ZM160.583 182.24C159.735 182.24 158.993 182.053 158.359 181.68C157.729 181.301 157.239 180.776 156.887 180.104C156.535 179.427 156.359 178.637 156.359 177.736C156.359 176.792 156.532 175.976 156.879 175.288C157.225 174.595 157.708 174.061 158.327 173.688C158.951 173.309 159.681 173.12 160.519 173.12C161.388 173.12 162.127 173.32 162.735 173.72C163.348 174.12 163.807 174.691 164.111 175.432C164.42 176.173 164.553 177.056 164.511 178.08H163.071V177.568C163.055 176.507 162.839 175.715 162.423 175.192C162.007 174.664 161.388 174.4 160.567 174.4C159.687 174.4 159.017 174.683 158.559 175.248C158.1 175.813 157.871 176.624 157.871 177.68C157.871 178.699 158.1 179.488 158.559 180.048C159.017 180.608 159.671 180.888 160.519 180.888C161.089 180.888 161.585 180.757 162.007 180.496C162.428 180.235 162.759 179.859 162.999 179.368L164.367 179.84C164.031 180.603 163.524 181.195 162.847 181.616C162.175 182.032 161.42 182.24 160.583 182.24ZM157.391 178.08V176.936H163.775V178.08H157.391ZM169.556 182.232C168.527 182.232 167.681 182.008 167.02 181.56C166.364 181.107 165.961 180.475 165.812 179.664L167.268 179.432C167.385 179.901 167.655 180.275 168.076 180.552C168.497 180.824 169.02 180.96 169.644 180.96C170.236 180.96 170.7 180.837 171.036 180.592C171.372 180.347 171.54 180.013 171.54 179.592C171.54 179.347 171.484 179.149 171.372 179C171.26 178.845 171.028 178.701 170.676 178.568C170.329 178.435 169.804 178.275 169.1 178.088C168.337 177.885 167.737 177.675 167.3 177.456C166.863 177.237 166.551 176.984 166.364 176.696C166.177 176.408 166.084 176.059 166.084 175.648C166.084 175.141 166.223 174.699 166.5 174.32C166.777 173.936 167.164 173.64 167.66 173.432C168.161 173.224 168.743 173.12 169.404 173.12C170.06 173.12 170.647 173.224 171.164 173.432C171.681 173.64 172.097 173.936 172.412 174.32C172.732 174.699 172.921 175.141 172.98 175.648L171.524 175.912C171.455 175.448 171.231 175.083 170.852 174.816C170.479 174.549 169.996 174.408 169.404 174.392C168.844 174.371 168.388 174.469 168.036 174.688C167.689 174.907 167.516 175.203 167.516 175.576C167.516 175.784 167.58 175.963 167.708 176.112C167.841 176.261 168.084 176.403 168.436 176.536C168.793 176.669 169.311 176.821 169.988 176.992C170.751 177.184 171.351 177.395 171.788 177.624C172.231 177.848 172.545 178.115 172.732 178.424C172.919 178.728 173.012 179.104 173.012 179.552C173.012 180.384 172.705 181.04 172.092 181.52C171.479 181.995 170.633 182.232 169.556 182.232Z" fill="white"/>
<g filter="url(#filter3_d_2233_105994)">
<circle cx="304" cy="140" r="8" transform="rotate(-90 304 140)" fill="white"/>
<circle cx="304" cy="140" r="6" transform="rotate(-90 304 140)" stroke="#0084FF" stroke-width="4"/>
</g>
<g filter="url(#filter4_bd_2233_105994)">
<circle cx="304" cy="140" r="8" transform="rotate(-180 304 140)" fill="#0084FF" fill-opacity="0.24" shape-rendering="crispEdges"/>
</g>
<ellipse cx="304" cy="140" rx="3" ry="3" transform="rotate(-180 304 140)" fill="white"/>
<line x1="178" y1="302.5" x2="277" y2="302.5" stroke="white"/>
<g filter="url(#filter5_d_2233_105994)">
<rect x="78" y="283" width="100" height="40" rx="6" fill="#030D17"/>
<rect x="78.715" y="283.715" width="98.57" height="38.57" rx="5.28498" stroke="url(#paint2_linear_2233_105994)" stroke-width="1.43005"/>
</g>
<path d="M91.32 309L95.176 297.48H97.16L101.016 309H99.536L95.928 298.312H96.376L92.8 309H91.32ZM93.176 306.304V304.968H99.16V306.304H93.176ZM106.416 309.24C105.605 309.24 104.923 309.04 104.368 308.64C103.813 308.235 103.392 307.688 103.104 307C102.821 306.307 102.68 305.531 102.68 304.672C102.68 303.803 102.821 303.024 103.104 302.336C103.392 301.648 103.813 301.107 104.368 300.712C104.928 300.317 105.613 300.12 106.424 300.12C107.224 300.12 107.912 300.32 108.488 300.72C109.069 301.115 109.515 301.656 109.824 302.344C110.133 303.032 110.288 303.808 110.288 304.672C110.288 305.536 110.133 306.312 109.824 307C109.515 307.688 109.069 308.235 108.488 308.64C107.912 309.04 107.221 309.24 106.416 309.24ZM102.44 312.84V300.36H103.712V306.72H103.872V312.84H102.44ZM106.24 307.936C106.811 307.936 107.283 307.792 107.656 307.504C108.029 307.216 108.309 306.827 108.496 306.336C108.683 305.84 108.776 305.285 108.776 304.672C108.776 304.064 108.683 303.515 108.496 303.024C108.315 302.533 108.032 302.144 107.648 301.856C107.269 301.568 106.787 301.424 106.2 301.424C105.64 301.424 105.176 301.563 104.808 301.84C104.44 302.112 104.165 302.493 103.984 302.984C103.803 303.469 103.712 304.032 103.712 304.672C103.712 305.301 103.8 305.864 103.976 306.36C104.157 306.851 104.435 307.237 104.808 307.52C105.181 307.797 105.659 307.936 106.24 307.936ZM116.01 309.24C115.199 309.24 114.517 309.04 113.962 308.64C113.407 308.235 112.986 307.688 112.698 307C112.415 306.307 112.274 305.531 112.274 304.672C112.274 303.803 112.415 303.024 112.698 302.336C112.986 301.648 113.407 301.107 113.962 300.712C114.522 300.317 115.207 300.12 116.018 300.12C116.818 300.12 117.506 300.32 118.082 300.72C118.663 301.115 119.109 301.656 119.418 302.344C119.727 303.032 119.882 303.808 119.882 304.672C119.882 305.536 119.727 306.312 119.418 307C119.109 307.688 118.663 308.235 118.082 308.64C117.506 309.04 116.815 309.24 116.01 309.24ZM112.034 312.84V300.36H113.306V306.72H113.466V312.84H112.034ZM115.834 307.936C116.405 307.936 116.877 307.792 117.25 307.504C117.623 307.216 117.903 306.827 118.09 306.336C118.277 305.84 118.37 305.285 118.37 304.672C118.37 304.064 118.277 303.515 118.09 303.024C117.909 302.533 117.626 302.144 117.242 301.856C116.863 301.568 116.381 301.424 115.794 301.424C115.234 301.424 114.77 301.563 114.402 301.84C114.034 302.112 113.759 302.493 113.578 302.984C113.397 303.469 113.306 304.032 113.306 304.672C113.306 305.301 113.394 305.864 113.57 306.36C113.751 306.851 114.029 307.237 114.402 307.52C114.775 307.797 115.253 307.936 115.834 307.936ZM128.927 309.24C128.111 309.24 127.375 309.101 126.719 308.824C126.068 308.547 125.529 308.152 125.103 307.64C124.681 307.123 124.407 306.512 124.279 305.808L125.751 305.576C125.937 306.301 126.324 306.869 126.911 307.28C127.503 307.685 128.199 307.888 128.999 307.888C129.516 307.888 129.983 307.808 130.399 307.648C130.82 307.483 131.153 307.248 131.399 306.944C131.644 306.64 131.767 306.28 131.767 305.864C131.767 305.608 131.721 305.389 131.631 305.208C131.545 305.021 131.425 304.864 131.271 304.736C131.121 304.603 130.951 304.491 130.759 304.4C130.567 304.309 130.367 304.235 130.159 304.176L127.223 303.304C126.903 303.208 126.593 303.088 126.295 302.944C125.996 302.795 125.729 302.611 125.495 302.392C125.26 302.168 125.073 301.901 124.935 301.592C124.796 301.277 124.727 300.907 124.727 300.48C124.727 299.797 124.903 299.216 125.255 298.736C125.612 298.251 126.095 297.88 126.703 297.624C127.311 297.368 127.996 297.243 128.759 297.248C129.532 297.253 130.223 297.392 130.831 297.664C131.444 297.931 131.951 298.315 132.351 298.816C132.756 299.317 133.028 299.917 133.167 300.616L131.655 300.88C131.575 300.411 131.396 300.008 131.119 299.672C130.847 299.331 130.505 299.069 130.095 298.888C129.684 298.701 129.233 298.605 128.743 298.6C128.273 298.595 127.849 298.669 127.471 298.824C127.092 298.979 126.791 299.195 126.567 299.472C126.343 299.744 126.231 300.059 126.231 300.416C126.231 300.768 126.332 301.053 126.535 301.272C126.737 301.485 126.985 301.656 127.279 301.784C127.577 301.907 127.868 302.008 128.151 302.088L130.343 302.72C130.593 302.789 130.881 302.885 131.207 303.008C131.537 303.131 131.857 303.304 132.167 303.528C132.476 303.747 132.732 304.04 132.935 304.408C133.137 304.771 133.239 305.229 133.239 305.784C133.239 306.339 133.127 306.832 132.903 307.264C132.684 307.696 132.377 308.059 131.983 308.352C131.588 308.64 131.129 308.859 130.607 309.008C130.084 309.163 129.524 309.24 128.927 309.24ZM139.741 309C139.229 309.101 138.722 309.141 138.221 309.12C137.725 309.104 137.282 309.005 136.893 308.824C136.504 308.637 136.208 308.349 136.005 307.96C135.834 307.619 135.741 307.275 135.725 306.928C135.714 306.576 135.709 306.179 135.709 305.736V297.96H137.133V305.672C137.133 306.024 137.136 306.325 137.141 306.576C137.152 306.827 137.208 307.043 137.309 307.224C137.501 307.565 137.805 307.765 138.221 307.824C138.642 307.883 139.149 307.867 139.741 307.776V309ZM133.957 301.536V300.36H139.741V301.536H133.957ZM144.816 309.24C143.957 309.24 143.216 309.045 142.592 308.656C141.973 308.267 141.496 307.728 141.16 307.04C140.824 306.352 140.656 305.563 140.656 304.672C140.656 303.765 140.826 302.971 141.168 302.288C141.509 301.605 141.992 301.075 142.616 300.696C143.24 300.312 143.973 300.12 144.816 300.12C145.68 300.12 146.424 300.315 147.048 300.704C147.672 301.088 148.149 301.624 148.48 302.312C148.816 302.995 148.984 303.781 148.984 304.672C148.984 305.573 148.816 306.368 148.48 307.056C148.144 307.739 147.664 308.275 147.04 308.664C146.416 309.048 145.674 309.24 144.816 309.24ZM144.816 307.888C145.712 307.888 146.378 307.589 146.816 306.992C147.253 306.395 147.472 305.621 147.472 304.672C147.472 303.696 147.25 302.92 146.808 302.344C146.365 301.763 145.701 301.472 144.816 301.472C144.213 301.472 143.717 301.608 143.328 301.88C142.938 302.152 142.648 302.528 142.456 303.008C142.264 303.488 142.168 304.043 142.168 304.672C142.168 305.643 142.392 306.421 142.84 307.008C143.288 307.595 143.946 307.888 144.816 307.888ZM150.745 309V300.36H152.017V302.448L151.809 302.176C151.91 301.909 152.041 301.664 152.201 301.44C152.366 301.216 152.55 301.032 152.753 300.888C152.977 300.707 153.23 300.568 153.513 300.472C153.796 300.376 154.084 300.32 154.377 300.304C154.67 300.283 154.945 300.301 155.201 300.36V301.696C154.902 301.616 154.574 301.595 154.217 301.632C153.86 301.669 153.529 301.8 153.225 302.024C152.948 302.221 152.732 302.461 152.577 302.744C152.428 303.027 152.324 303.333 152.265 303.664C152.206 303.989 152.177 304.323 152.177 304.664V309H150.745ZM160.302 309.24C159.454 309.24 158.712 309.053 158.078 308.68C157.448 308.301 156.958 307.776 156.606 307.104C156.254 306.427 156.078 305.637 156.078 304.736C156.078 303.792 156.251 302.976 156.598 302.288C156.944 301.595 157.427 301.061 158.046 300.688C158.67 300.309 159.4 300.12 160.238 300.12C161.107 300.12 161.846 300.32 162.454 300.72C163.067 301.12 163.526 301.691 163.83 302.432C164.139 303.173 164.272 304.056 164.23 305.08H162.79V304.568C162.774 303.507 162.558 302.715 162.142 302.192C161.726 301.664 161.107 301.4 160.286 301.4C159.406 301.4 158.736 301.683 158.278 302.248C157.819 302.813 157.59 303.624 157.59 304.68C157.59 305.699 157.819 306.488 158.278 307.048C158.736 307.608 159.39 307.888 160.238 307.888C160.808 307.888 161.304 307.757 161.726 307.496C162.147 307.235 162.478 306.859 162.718 306.368L164.086 306.84C163.75 307.603 163.243 308.195 162.566 308.616C161.894 309.032 161.139 309.24 160.302 309.24ZM157.11 305.08V303.936H163.494V305.08H157.11Z" fill="white"/>
<g filter="url(#filter6_d_2233_105994)">
<circle cx="274" cy="303" r="8" fill="white"/>
<circle cx="274" cy="303" r="5.5" stroke="#0084FF" stroke-width="5"/>
</g>
<g filter="url(#filter7_bd_2233_105994)">
<circle cx="274" cy="303" r="8" transform="rotate(-180 274 303)" fill="#0084FF" fill-opacity="0.24" shape-rendering="crispEdges"/>
</g>
<ellipse cx="274" cy="303" rx="3" ry="3" transform="rotate(-180 274 303)" fill="white"/>
<line x1="279" y1="447.5" x2="176" y2="447.5" stroke="white"/>
<g filter="url(#filter8_d_2233_105994)">
<rect x="24" y="427" width="160" height="40" rx="6" fill="#030D17"/>
<rect x="24.715" y="427.715" width="158.57" height="38.57" rx="5.28498" stroke="url(#paint3_linear_2233_105994)" stroke-width="1.43005"/>
</g>
<path d="M45.28 453V441.48H46.704V451.648H52.048V453H45.28ZM53.5613 442.832V441.36H54.9853V442.832H53.5613ZM53.5613 453V444.36H54.9853V453H53.5613ZM59.7216 453L56.5856 444.36H58.0256L60.4496 451.184L62.8656 444.36H64.3136L61.1776 453H59.7216ZM69.1921 453.24C68.3441 453.24 67.6028 453.053 66.9681 452.68C66.3388 452.301 65.8481 451.776 65.4961 451.104C65.1441 450.427 64.9681 449.637 64.9681 448.736C64.9681 447.792 65.1415 446.976 65.4881 446.288C65.8348 445.595 66.3175 445.061 66.9361 444.688C67.5601 444.309 68.2908 444.12 69.1281 444.12C69.9975 444.12 70.7361 444.32 71.3441 444.72C71.9575 445.12 72.4161 445.691 72.7201 446.432C73.0295 447.173 73.1628 448.056 73.1201 449.08H71.6801V448.568C71.6641 447.507 71.4481 446.715 71.0321 446.192C70.6161 445.664 69.9975 445.4 69.1761 445.4C68.2961 445.4 67.6268 445.683 67.1681 446.248C66.7095 446.813 66.4801 447.624 66.4801 448.68C66.4801 449.699 66.7095 450.488 67.1681 451.048C67.6268 451.608 68.2801 451.888 69.1281 451.888C69.6988 451.888 70.1948 451.757 70.6161 451.496C71.0375 451.235 71.3681 450.859 71.6081 450.368L72.9761 450.84C72.6401 451.603 72.1335 452.195 71.4561 452.616C70.7841 453.032 70.0295 453.24 69.1921 453.24ZM66.0001 449.08V447.936H72.3841V449.08H66.0001ZM81.0724 453V442.832H77.1444V441.48H86.4244V442.832H82.4964V453H81.0724ZM90.5141 453L86.6581 441.48H88.1381L91.4901 451.488L94.8741 441.48H96.3541L92.4981 453H90.5141ZM105.497 453.24C104.35 453.24 103.377 452.987 102.577 452.48C101.777 451.973 101.166 451.269 100.745 450.368C100.329 449.467 100.121 448.424 100.121 447.24C100.121 446.056 100.329 445.013 100.745 444.112C101.166 443.211 101.777 442.507 102.577 442C103.377 441.493 104.35 441.24 105.497 441.24C106.83 441.24 107.926 441.579 108.785 442.256C109.649 442.933 110.243 443.845 110.569 444.992L109.121 445.376C108.886 444.517 108.467 443.84 107.865 443.344C107.262 442.848 106.473 442.6 105.497 442.6C104.638 442.6 103.923 442.795 103.353 443.184C102.782 443.573 102.353 444.117 102.065 444.816C101.777 445.509 101.63 446.317 101.625 447.24C101.619 448.157 101.761 448.965 102.049 449.664C102.337 450.357 102.769 450.901 103.345 451.296C103.921 451.685 104.638 451.88 105.497 451.88C106.473 451.88 107.262 451.632 107.865 451.136C108.467 450.635 108.886 449.957 109.121 449.104L110.569 449.488C110.243 450.629 109.649 451.541 108.785 452.224C107.926 452.901 106.83 453.24 105.497 453.24ZM118.475 453V448.672C118.475 448.261 118.438 447.867 118.363 447.488C118.294 447.109 118.168 446.771 117.987 446.472C117.811 446.168 117.571 445.928 117.267 445.752C116.968 445.576 116.59 445.488 116.131 445.488C115.774 445.488 115.448 445.549 115.155 445.672C114.867 445.789 114.619 445.971 114.411 446.216C114.203 446.461 114.04 446.771 113.923 447.144C113.811 447.512 113.755 447.947 113.755 448.448L112.819 448.16C112.819 447.323 112.968 446.605 113.267 446.008C113.571 445.405 113.995 444.944 114.539 444.624C115.088 444.299 115.734 444.136 116.475 444.136C117.035 444.136 117.512 444.224 117.907 444.4C118.302 444.576 118.63 444.811 118.891 445.104C119.152 445.392 119.358 445.717 119.507 446.08C119.656 446.437 119.76 446.803 119.819 447.176C119.883 447.544 119.915 447.893 119.915 448.224V453H118.475ZM112.315 453V441.48H113.595V447.84H113.755V453H112.315ZM124.451 453.24C123.806 453.24 123.264 453.123 122.827 452.888C122.395 452.648 122.067 452.333 121.843 451.944C121.624 451.555 121.515 451.128 121.515 450.664C121.515 450.211 121.6 449.819 121.771 449.488C121.947 449.152 122.192 448.875 122.507 448.656C122.822 448.432 123.198 448.256 123.635 448.128C124.046 448.016 124.504 447.92 125.011 447.84C125.523 447.755 126.04 447.677 126.563 447.608C127.086 447.539 127.574 447.472 128.027 447.408L127.515 447.704C127.531 446.936 127.376 446.368 127.051 446C126.731 445.632 126.176 445.448 125.387 445.448C124.864 445.448 124.406 445.568 124.011 445.808C123.622 446.043 123.347 446.427 123.187 446.96L121.835 446.552C122.043 445.795 122.446 445.2 123.043 444.768C123.64 444.336 124.427 444.12 125.403 444.12C126.187 444.12 126.859 444.261 127.419 444.544C127.984 444.821 128.39 445.243 128.635 445.808C128.758 446.075 128.835 446.365 128.867 446.68C128.899 446.989 128.915 447.315 128.915 447.656V453H127.651V450.928L127.947 451.12C127.622 451.819 127.166 452.347 126.579 452.704C125.998 453.061 125.288 453.24 124.451 453.24ZM124.667 452.048C125.179 452.048 125.622 451.957 125.995 451.776C126.374 451.589 126.678 451.347 126.907 451.048C127.136 450.744 127.286 450.413 127.355 450.056C127.435 449.789 127.478 449.493 127.483 449.168C127.494 448.837 127.499 448.584 127.499 448.408L127.995 448.624C127.531 448.688 127.075 448.749 126.627 448.808C126.179 448.867 125.755 448.931 125.355 449C124.955 449.064 124.595 449.141 124.275 449.232C124.04 449.307 123.819 449.403 123.611 449.52C123.408 449.637 123.243 449.789 123.115 449.976C122.992 450.157 122.931 450.384 122.931 450.656C122.931 450.891 122.99 451.115 123.107 451.328C123.23 451.541 123.416 451.715 123.667 451.848C123.923 451.981 124.256 452.048 124.667 452.048ZM137.147 453V448.672C137.147 448.261 137.11 447.867 137.035 447.488C136.966 447.109 136.84 446.771 136.659 446.472C136.483 446.168 136.243 445.928 135.939 445.752C135.64 445.576 135.262 445.488 134.803 445.488C134.446 445.488 134.12 445.549 133.827 445.672C133.539 445.789 133.291 445.971 133.083 446.216C132.875 446.461 132.712 446.771 132.595 447.144C132.483 447.512 132.427 447.947 132.427 448.448L131.491 448.16C131.491 447.323 131.64 446.605 131.939 446.008C132.243 445.405 132.667 444.944 133.211 444.624C133.76 444.299 134.406 444.136 135.147 444.136C135.707 444.136 136.184 444.224 136.579 444.4C136.974 444.576 137.302 444.811 137.563 445.104C137.824 445.392 138.03 445.717 138.179 446.08C138.328 446.437 138.432 446.803 138.491 447.176C138.555 447.544 138.587 447.893 138.587 448.224V453H137.147ZM130.987 453V444.36H132.267V446.672H132.427V453H130.987ZM146.819 453V448.672C146.819 448.261 146.782 447.867 146.707 447.488C146.638 447.109 146.512 446.771 146.331 446.472C146.155 446.168 145.915 445.928 145.611 445.752C145.312 445.576 144.934 445.488 144.475 445.488C144.118 445.488 143.792 445.549 143.499 445.672C143.211 445.789 142.963 445.971 142.755 446.216C142.547 446.461 142.384 446.771 142.267 447.144C142.155 447.512 142.099 447.947 142.099 448.448L141.163 448.16C141.163 447.323 141.312 446.605 141.611 446.008C141.915 445.405 142.339 444.944 142.883 444.624C143.432 444.299 144.078 444.136 144.819 444.136C145.379 444.136 145.856 444.224 146.251 444.4C146.646 444.576 146.974 444.811 147.235 445.104C147.496 445.392 147.702 445.717 147.851 446.08C148 446.437 148.104 446.803 148.163 447.176C148.227 447.544 148.259 447.893 148.259 448.224V453H146.819ZM140.659 453V444.36H141.939V446.672H142.099V453H140.659ZM154.005 453.24C153.157 453.24 152.415 453.053 151.781 452.68C151.151 452.301 150.661 451.776 150.309 451.104C149.957 450.427 149.781 449.637 149.781 448.736C149.781 447.792 149.954 446.976 150.301 446.288C150.647 445.595 151.13 445.061 151.749 444.688C152.373 444.309 153.103 444.12 153.941 444.12C154.81 444.12 155.549 444.32 156.157 444.72C156.77 445.12 157.229 445.691 157.533 446.432C157.842 447.173 157.975 448.056 157.933 449.08H156.493V448.568C156.477 447.507 156.261 446.715 155.845 446.192C155.429 445.664 154.81 445.4 153.989 445.4C153.109 445.4 152.439 445.683 151.981 446.248C151.522 446.813 151.293 447.624 151.293 448.68C151.293 449.699 151.522 450.488 151.981 451.048C152.439 451.608 153.093 451.888 153.941 451.888C154.511 451.888 155.007 451.757 155.429 451.496C155.85 451.235 156.181 450.859 156.421 450.368L157.789 450.84C157.453 451.603 156.946 452.195 156.269 452.616C155.597 453.032 154.842 453.24 154.005 453.24ZM150.813 449.08V447.936H157.197V449.08H150.813ZM159.874 453V441.24H161.298V453H159.874ZM166.962 453.232C165.933 453.232 165.087 453.008 164.426 452.56C163.77 452.107 163.367 451.475 163.218 450.664L164.674 450.432C164.791 450.901 165.061 451.275 165.482 451.552C165.903 451.824 166.426 451.96 167.05 451.96C167.642 451.96 168.106 451.837 168.442 451.592C168.778 451.347 168.946 451.013 168.946 450.592C168.946 450.347 168.89 450.149 168.778 450C168.666 449.845 168.434 449.701 168.082 449.568C167.735 449.435 167.21 449.275 166.506 449.088C165.743 448.885 165.143 448.675 164.706 448.456C164.269 448.237 163.957 447.984 163.77 447.696C163.583 447.408 163.49 447.059 163.49 446.648C163.49 446.141 163.629 445.699 163.906 445.32C164.183 444.936 164.57 444.64 165.066 444.432C165.567 444.224 166.149 444.12 166.81 444.12C167.466 444.12 168.053 444.224 168.57 444.432C169.087 444.64 169.503 444.936 169.818 445.32C170.138 445.699 170.327 446.141 170.386 446.648L168.93 446.912C168.861 446.448 168.637 446.083 168.258 445.816C167.885 445.549 167.402 445.408 166.81 445.392C166.25 445.371 165.794 445.469 165.442 445.688C165.095 445.907 164.922 446.203 164.922 446.576C164.922 446.784 164.986 446.963 165.114 447.112C165.247 447.261 165.49 447.403 165.842 447.536C166.199 447.669 166.717 447.821 167.394 447.992C168.157 448.184 168.757 448.395 169.194 448.624C169.637 448.848 169.951 449.115 170.138 449.424C170.325 449.728 170.418 450.104 170.418 450.552C170.418 451.384 170.111 452.04 169.498 452.52C168.885 452.995 168.039 453.232 166.962 453.232Z" fill="white"/>
<g filter="url(#filter9_d_2233_105994)">
<circle cx="280" cy="447" r="8" transform="rotate(180 280 447)" fill="white"/>
<circle cx="280" cy="447" r="5.5" transform="rotate(180 280 447)" stroke="#0084FF" stroke-width="5"/>
</g>
<defs>
<filter id="filter0_d_2233_105994" x="14" y="0" width="194" height="88" filterUnits="userSpaceOnUse" color-interpolation-filters="sRGB">
<feFlood flood-opacity="0" result="BackgroundImageFix"/>
<feColorMatrix in="SourceAlpha" type="matrix" values="0 0 0 0 0 0 0 0 0 0 0 0 0 0 0 0 0 0 127 0" result="hardAlpha"/>
<feOffset/>
<feGaussianBlur stdDeviation="12"/>
<feComposite in2="hardAlpha" operator="out"/>
<feColorMatrix type="matrix" values="0 0 0 0 0 0 0 0 0 0 0 0 0 0 0 0 0 0 0.25 0"/>
<feBlend mode="normal" in2="BackgroundImageFix" result="effect1_dropShadow_2233_105994"/>
<feBlend mode="normal" in="SourceGraphic" in2="effect1_dropShadow_2233_105994" result="shape"/>
</filter>
<filter id="filter1_d_2233_105994" x="336" y="87.0002" width="40" height="40" filterUnits="userSpaceOnUse" color-interpolation-filters="sRGB">
<feFlood flood-opacity="0" result="BackgroundImageFix"/>
<feColorMatrix in="SourceAlpha" type="matrix" values="0 0 0 0 0 0 0 0 0 0 0 0 0 0 0 0 0 0 127 0" result="hardAlpha"/>
<feOffset/>
<feGaussianBlur stdDeviation="6"/>
<feComposite in2="hardAlpha" operator="out"/>
<feColorMatrix type="matrix" values="0 0 0 0 0 0 0 0 0 0.517647 0 0 0 0 1 0 0 0 0.6 0"/>
<feBlend mode="normal" in2="BackgroundImageFix" result="effect1_dropShadow_2233_105994"/>
<feBlend mode="normal" in="SourceGraphic" in2="effect1_dropShadow_2233_105994" result="shape"/>
</filter>
<filter id="filter2_d_2233_105994" x="44" y="132" width="164" height="88" filterUnits="userSpaceOnUse" color-interpolation-filters="sRGB">
<feFlood flood-opacity="0" result="BackgroundImageFix"/>
<feColorMatrix in="SourceAlpha" type="matrix" values="0 0 0 0 0 0 0 0 0 0 0 0 0 0 0 0 0 0 127 0" result="hardAlpha"/>
<feOffset/>
<feGaussianBlur stdDeviation="12"/>
<feComposite in2="hardAlpha" operator="out"/>
<feColorMatrix type="matrix" values="0 0 0 0 0 0 0 0 0 0 0 0 0 0 0 0 0 0 0.25 0"/>
<feBlend mode="normal" in2="BackgroundImageFix" result="effect1_dropShadow_2233_105994"/>
<feBlend mode="normal" in="SourceGraphic" in2="effect1_dropShadow_2233_105994" result="shape"/>
</filter>
<filter id="filter3_d_2233_105994" x="284" y="120" width="40" height="40" filterUnits="userSpaceOnUse" color-interpolation-filters="sRGB">
<feFlood flood-opacity="0" result="BackgroundImageFix"/>
<feColorMatrix in="SourceAlpha" type="matrix" values="0 0 0 0 0 0 0 0 0 0 0 0 0 0 0 0 0 0 127 0" result="hardAlpha"/>
<feOffset/>
<feGaussianBlur stdDeviation="6"/>
<feComposite in2="hardAlpha" operator="out"/>
<feColorMatrix type="matrix" values="0 0 0 0 0 0 0 0 0 0.517647 0 0 0 0 1 0 0 0 0.6 0"/>
<feBlend mode="normal" in2="BackgroundImageFix" result="effect1_dropShadow_2233_105994"/>
<feBlend mode="normal" in="SourceGraphic" in2="effect1_dropShadow_2233_105994" result="shape"/>
</filter>
<filter id="filter4_bd_2233_105994" x="280" y="116" width="48" height="48" filterUnits="userSpaceOnUse" color-interpolation-filters="sRGB">
<feFlood flood-opacity="0" result="BackgroundImageFix"/>
<feGaussianBlur in="BackgroundImageFix" stdDeviation="8"/>
<feComposite in2="SourceAlpha" operator="in" result="effect1_backgroundBlur_2233_105994"/>
<feColorMatrix in="SourceAlpha" type="matrix" values="0 0 0 0 0 0 0 0 0 0 0 0 0 0 0 0 0 0 127 0" result="hardAlpha"/>
<feOffset/>
<feGaussianBlur stdDeviation="8"/>
<feComposite in2="hardAlpha" operator="out"/>
<feColorMatrix type="matrix" values="0 0 0 0 0 0 0 0 0 0.517647 0 0 0 0 1 0 0 0 0.4 0"/>
<feBlend mode="normal" in2="effect1_backgroundBlur_2233_105994" result="effect2_dropShadow_2233_105994"/>
<feBlend mode="normal" in="SourceGraphic" in2="effect2_dropShadow_2233_105994" result="shape"/>
</filter>
<filter id="filter5_d_2233_105994" x="54" y="259" width="148" height="88" filterUnits="userSpaceOnUse" color-interpolation-filters="sRGB">
<feFlood flood-opacity="0" result="BackgroundImageFix"/>
<feColorMatrix in="SourceAlpha" type="matrix" values="0 0 0 0 0 0 0 0 0 0 0 0 0 0 0 0 0 0 127 0" result="hardAlpha"/>
<feOffset/>
<feGaussianBlur stdDeviation="12"/>
<feComposite in2="hardAlpha" operator="out"/>
<feColorMatrix type="matrix" values="0 0 0 0 0 0 0 0 0 0 0 0 0 0 0 0 0 0 0.25 0"/>
<feBlend mode="normal" in2="BackgroundImageFix" result="effect1_dropShadow_2233_105994"/>
<feBlend mode="normal" in="SourceGraphic" in2="effect1_dropShadow_2233_105994" result="shape"/>
</filter>
<filter id="filter6_d_2233_105994" x="254" y="283" width="40" height="40" filterUnits="userSpaceOnUse" color-interpolation-filters="sRGB">
<feFlood flood-opacity="0" result="BackgroundImageFix"/>
<feColorMatrix in="SourceAlpha" type="matrix" values="0 0 0 0 0 0 0 0 0 0 0 0 0 0 0 0 0 0 127 0" result="hardAlpha"/>
<feOffset/>
<feGaussianBlur stdDeviation="6"/>
<feComposite in2="hardAlpha" operator="out"/>
<feColorMatrix type="matrix" values="0 0 0 0 0 0 0 0 0 0.517647 0 0 0 0 1 0 0 0 0.6 0"/>
<feBlend mode="normal" in2="BackgroundImageFix" result="effect1_dropShadow_2233_105994"/>
<feBlend mode="normal" in="SourceGraphic" in2="effect1_dropShadow_2233_105994" result="shape"/>
</filter>
<filter id="filter7_bd_2233_105994" x="250" y="279" width="48" height="48" filterUnits="userSpaceOnUse" color-interpolation-filters="sRGB">
<feFlood flood-opacity="0" result="BackgroundImageFix"/>
<feGaussianBlur in="BackgroundImageFix" stdDeviation="8"/>
<feComposite in2="SourceAlpha" operator="in" result="effect1_backgroundBlur_2233_105994"/>
<feColorMatrix in="SourceAlpha" type="matrix" values="0 0 0 0 0 0 0 0 0 0 0 0 0 0 0 0 0 0 127 0" result="hardAlpha"/>
<feOffset/>
<feGaussianBlur stdDeviation="8"/>
<feComposite in2="hardAlpha" operator="out"/>
<feColorMatrix type="matrix" values="0 0 0 0 0 0 0 0 0 0.517647 0 0 0 0 1 0 0 0 0.4 0"/>
<feBlend mode="normal" in2="effect1_backgroundBlur_2233_105994" result="effect2_dropShadow_2233_105994"/>
<feBlend mode="normal" in="SourceGraphic" in2="effect2_dropShadow_2233_105994" result="shape"/>
</filter>
<filter id="filter8_d_2233_105994" x="0" y="403" width="208" height="88" filterUnits="userSpaceOnUse" color-interpolation-filters="sRGB">
<feFlood flood-opacity="0" result="BackgroundImageFix"/>
<feColorMatrix in="SourceAlpha" type="matrix" values="0 0 0 0 0 0 0 0 0 0 0 0 0 0 0 0 0 0 127 0" result="hardAlpha"/>
<feOffset/>
<feGaussianBlur stdDeviation="12"/>
<feComposite in2="hardAlpha" operator="out"/>
<feColorMatrix type="matrix" values="0 0 0 0 0 0 0 0 0 0 0 0 0 0 0 0 0 0 0.25 0"/>
<feBlend mode="normal" in2="BackgroundImageFix" result="effect1_dropShadow_2233_105994"/>
<feBlend mode="normal" in="SourceGraphic" in2="effect1_dropShadow_2233_105994" result="shape"/>
</filter>
<filter id="filter9_d_2233_105994" x="260" y="427" width="40" height="40" filterUnits="userSpaceOnUse" color-interpolation-filters="sRGB">
<feFlood flood-opacity="0" result="BackgroundImageFix"/>
<feColorMatrix in="SourceAlpha" type="matrix" values="0 0 0 0 0 0 0 0 0 0 0 0 0 0 0 0 0 0 127 0" result="hardAlpha"/>
<feOffset/>
<feGaussianBlur stdDeviation="6"/>
<feComposite in2="hardAlpha" operator="out"/>
<feColorMatrix type="matrix" values="0 0 0 0 0 0 0 0 0 0.517647 0 0 0 0 1 0 0 0 0.6 0"/>
<feBlend mode="normal" in2="BackgroundImageFix" result="effect1_dropShadow_2233_105994"/>
<feBlend mode="normal" in="SourceGraphic" in2="effect1_dropShadow_2233_105994" result="shape"/>
</filter>
<linearGradient id="paint0_linear_2233_105994" x1="48.1292" y1="30.8965" x2="179.251" y2="64.8069" gradientUnits="userSpaceOnUse">
<stop stop-color="#0084FF"/>
<stop offset="1" stop-color="#936AFF"/>
</linearGradient>
<linearGradient id="paint1_linear_2233_105994" x1="76.0478" y1="162.897" x2="182.692" y2="184.809" gradientUnits="userSpaceOnUse">
<stop stop-color="#0084FF"/>
<stop offset="1" stop-color="#936AFF"/>
</linearGradient>
<linearGradient id="paint2_linear_2233_105994" x1="84.9378" y1="289.897" x2="177.839" y2="306.353" gradientUnits="userSpaceOnUse">
<stop stop-color="#0084FF"/>
<stop offset="1" stop-color="#936AFF"/>
</linearGradient>
<linearGradient id="paint3_linear_2233_105994" x1="35.1005" y1="433.897" x2="177.007" y2="474.115" gradientUnits="userSpaceOnUse">
<stop stop-color="#0084FF"/>
<stop offset="1" stop-color="#936AFF"/>
</linearGradient>
</defs>
</svg>
