<svg width="123" height="122" viewBox="0 0 123 122" fill="none" xmlns="http://www.w3.org/2000/svg">
<path d="M98.8983 12.3367C112.407 20.5479 120.238 34.026 121.905 47.2164C123.571 60.4942 119.074 73.4842 109.776 87.2861C100.39 101.175 91.5298 114.191 79.2489 119.17C67.0558 124.149 51.3538 121.005 37.2308 115.239C23.1077 109.474 10.5637 101.088 4.68643 89.47C-1.10313 77.8519 -0.0504823 63.1765 3.63378 50.0735C7.31804 36.9704 13.7216 25.5271 23.1955 16.617C32.6693 7.70694 45.0379 1.33012 58.2837 0.456582C71.4418 -0.416955 85.3894 4.21279 98.8983 12.3367Z" fill="url(#paint0_linear_3044_85100)"/>
<defs>
<linearGradient id="paint0_linear_3044_85100" x1="64.0128" y1="0.351563" x2="64.0128" y2="121.649" gradientUnits="userSpaceOnUse">
<stop stop-color="#B5E5F1"/>
<stop offset="1" stop-color="#739CDE"/>
</linearGradient>
</defs>
</svg>
