<svg width="143" height="136" viewBox="0 0 143 136" fill="none" xmlns="http://www.w3.org/2000/svg">
<path d="M116.977 15.25C129.44 25.8502 137.542 41.2204 140.747 57.6506C143.952 74.0809 142.171 91.6594 134.248 105.881C126.235 120.103 112.08 131.057 96.7676 134.59C81.544 138.212 65.2521 134.413 50.6517 128.23C36.1403 121.958 23.3204 113.125 13.9726 100.67C4.62475 88.2144 -1.34005 71.9608 1.41978 57.5623C4.17962 43.0754 15.7531 30.2669 28.8401 19.8434C41.927 9.41993 56.6165 1.29314 72.2852 0.144795C87.9539 -1.00355 104.602 4.73819 116.977 15.25Z" fill="url(#paint0_linear_3044_85099)"/>
<defs>
<linearGradient id="paint0_linear_3044_85099" x1="71.4989" y1="0" x2="71.4989" y2="136" gradientUnits="userSpaceOnUse">
<stop stop-color="#A4B9DA"/>
<stop offset="1" stop-color="#3361AD"/>
</linearGradient>
</defs>
</svg>
