<svg width="143" height="136" viewBox="0 0 143 136" fill="none" xmlns="http://www.w3.org/2000/svg">
<path d="M116.977 15.25C129.44 25.8502 137.542 41.2204 140.747 57.6506C143.952 74.0808 142.171 91.6594 134.248 105.881C126.235 120.103 112.08 131.057 96.7676 134.59C81.544 138.212 65.2521 134.413 50.6517 128.23C36.1403 121.958 23.3204 113.125 13.9726 100.67C4.62475 88.2144 -1.34005 71.9608 1.41978 57.5623C4.17962 43.0754 15.7531 30.2669 28.8401 19.8434C41.927 9.41993 56.6165 1.29314 72.2852 0.144795C87.9539 -1.00355 104.602 4.73819 116.977 15.25Z" fill="url(#paint0_linear_1395_98885)"/>
<path d="M111.898 19.3367C125.407 27.5479 133.238 41.026 134.905 54.2164C136.571 67.4942 132.074 80.4842 122.776 94.2861C113.39 108.175 104.53 121.191 92.2489 126.17C80.0558 131.149 64.3538 128.005 50.2308 122.239C36.1077 116.474 23.5637 108.088 17.6864 96.47C11.8969 84.8519 12.9495 70.1765 16.6338 57.0735C20.318 43.9704 26.7216 32.5271 36.1955 23.617C45.6693 14.7069 58.0379 8.33012 71.2837 7.45658C84.4418 6.58305 98.3894 11.2128 111.898 19.3367Z" fill="url(#paint1_linear_1395_98885)"/>
<circle cx="72.4185" cy="69.8385" r="47.7838" fill="url(#paint2_linear_1395_98885)" fill-opacity="0.8"/>
<path d="M73.0865 51.4609C71.7572 51.4609 70.4823 51.989 69.5423 52.929C68.6023 53.869 68.0742 55.1439 68.0742 56.4732V69.8393C68.0742 71.1687 68.6023 72.4436 69.5423 73.3835C70.4823 74.3235 71.7572 74.8516 73.0865 74.8516C74.4158 74.8516 75.6907 74.3235 76.6307 73.3835C77.5707 72.4436 78.0988 71.1687 78.0988 69.8393V56.4732C78.0988 55.1439 77.5707 53.869 76.6307 52.929C75.6907 51.989 74.4158 51.4609 73.0865 51.4609V51.4609Z" stroke="white" stroke-width="3.67568" stroke-linecap="round" stroke-linejoin="round"/>
<path d="M84.7813 66.498V69.8396C84.7813 72.9414 83.5491 75.9161 81.3558 78.1094C79.1625 80.3027 76.1878 81.5349 73.086 81.5349C69.9842 81.5349 67.0094 80.3027 64.8161 78.1094C62.6228 75.9161 61.3906 72.9414 61.3906 69.8396V66.498" stroke="white" stroke-width="3.67568" stroke-linecap="round" stroke-linejoin="round"/>
<path d="M73.0859 81.5332V88.2162" stroke="white" stroke-width="3.67568" stroke-linecap="round" stroke-linejoin="round"/>
<path d="M66.4023 88.2168H79.7684" stroke="white" stroke-width="3.67568" stroke-linecap="round" stroke-linejoin="round"/>
<defs>
<linearGradient id="paint0_linear_1395_98885" x1="71.4989" y1="0" x2="71.4989" y2="136" gradientUnits="userSpaceOnUse">
<stop stop-color="#A4B9DA"/>
<stop offset="1" stop-color="#3361AD"/>
</linearGradient>
<linearGradient id="paint1_linear_1395_98885" x1="77.0128" y1="7.35156" x2="77.0128" y2="128.649" gradientUnits="userSpaceOnUse">
<stop stop-color="#B5E5F1"/>
<stop offset="1" stop-color="#739CDE"/>
</linearGradient>
<linearGradient id="paint2_linear_1395_98885" x1="72.4185" y1="22.0547" x2="72.4185" y2="117.622" gradientUnits="userSpaceOnUse">
<stop stop-color="#1C6EEE"/>
<stop offset="0.0001" stop-color="#2977F2"/>
<stop offset="1" stop-color="#073989"/>
</linearGradient>
</defs>
</svg>
