<svg width="61" height="60" viewBox="0 0 91 90" fill="none" xmlns="http://www.w3.org/2000/svg">
<path fill-rule="evenodd" clip-rule="evenodd" d="M9.09467 34.4844C10.3265 34.4844 11.2735 33.5367 11.2735 32.3056C11.2735 21.4111 19.7051 12.4107 30.4104 11.4634V16.2002C30.4104 16.8637 30.7891 17.5265 31.4526 17.9052C31.7367 18.0948 32.1161 18.1893 32.4002 18.1893C32.7789 18.1893 33.0637 18.0948 33.4424 17.9052L45.19 10.7999C45.7583 10.4212 46.1376 9.85221 46.1376 9.09492C46.1376 8.33693 45.759 7.76863 45.19 7.38998L33.4417 0.283993C32.8734 -0.0946694 32.1154 -0.0946694 31.4519 0.283993C30.7884 0.662655 30.4097 1.32614 30.4097 1.98893V7.10441C17.2412 8.05206 6.82009 18.9466 6.82009 32.3046C6.82075 33.5364 7.8629 34.4841 9.09464 34.4841L9.09467 34.4844ZM43.9593 26.2424L29.6541 30.8847L45.0014 36.0002L60.3487 30.9791L46.0435 26.3368C45.38 26.0527 44.6227 26.0528 43.9593 26.2424ZM25.4837 56.4638C25.4837 57.2217 25.9575 57.79 26.6203 58.0742L43.1048 63.4739V39.3159L25.4837 33.5369L25.4837 56.4638ZM64.5165 56.4633C64.5165 57.2213 64.0433 57.8841 63.3798 58.0738L46.8953 63.4739V39.3159L64.5165 33.5369V56.4633ZM11.4633 59.59C12.4107 70.2954 21.4111 78.727 32.3055 78.727H32.305C33.5362 78.727 34.4838 79.6746 34.4832 81.0015C34.4832 82.2327 33.5362 83.1803 32.3044 83.1803C18.9464 83.1803 8.05184 72.7592 7.1042 59.5907H1.98871C1.32592 59.5907 0.662438 59.212 0.283775 58.5486C-0.0948868 57.885 -0.0948868 57.1271 0.283775 56.5587L7.48365 44.8104C8.14715 43.6738 10.0418 43.6738 10.7998 44.8104L17.9051 56.5581C18.2838 57.2216 18.2838 57.8844 17.9051 58.5479C17.5265 59.2114 16.8637 59.59 16.2002 59.59H11.4633ZM80.9061 55.5161C79.6743 55.5161 78.7273 56.4638 78.7273 57.6949C78.7273 68.5894 70.2956 77.5898 59.5903 78.5372V73.8003C59.5903 73.1368 59.2116 72.474 58.5481 72.0953C57.8847 71.7167 57.2219 71.7167 56.5583 72.0953L44.8107 79.2007C44.2424 79.5793 43.8631 80.1483 43.8631 80.9056C43.8631 81.5691 44.2417 82.2319 44.8107 82.6105L56.5583 89.7158C56.8425 89.9055 57.2218 90 57.6005 90C57.9791 90 58.264 89.9055 58.5481 89.7158C59.2116 89.3372 59.5903 88.6737 59.5903 88.0109V82.8954C72.7588 81.9478 83.1799 71.0532 83.1799 57.6952C83.1799 56.4641 82.1377 55.5165 80.906 55.5165L80.9061 55.5161ZM88.0118 30.4107C88.6746 30.4107 89.3381 30.7893 89.7168 31.4528L89.7171 31.453C90.0957 32.0213 90.0957 32.7792 89.7171 33.3476L82.6118 45.0952C82.2331 45.6642 81.6648 46.0428 80.9068 46.0428C80.1496 46.0428 79.5806 45.6635 79.2019 45.0952L72.0966 33.3476C71.7179 32.684 71.7179 32.0212 72.0966 31.3577C72.4752 30.6943 73.138 30.3156 73.8015 30.3156H78.5384C77.591 19.6103 68.5906 11.1786 57.6962 11.1786C56.465 11.1786 55.5174 10.2316 55.5174 8.99983C55.5174 7.76869 56.4644 6.82104 57.6962 6.82104C71.0541 6.82104 81.9487 17.2422 82.8963 30.4107H88.0118Z" fill="url(#paint0_linear_3141_108040)"/>
<defs>
<linearGradient id="paint0_linear_3141_108040" x1="6.09384" y1="9.64288" x2="90.8638" y2="15.8603" gradientUnits="userSpaceOnUse">
<stop stop-color="#0084FF"/>
<stop offset="0.541705" stop-color="#6055E8"/>
<stop offset="1" stop-color="#6D4FE5"/>
</linearGradient>
</defs>
</svg>
