<svg width="67" height="61" viewBox="0 0 87 81" fill="none" xmlns="http://www.w3.org/2000/svg">
<path d="M83.0965 56.1221C81.46 56.026 77.9941 57.8546 77.1279 58.3361C73.758 59.9727 69.1373 62.6682 66.1529 64.6902C65.9601 64.7863 65.6714 64.979 65.4786 65.1717C64.1309 66.038 62.6871 66.6155 61.0498 67.0011C52.1928 68.9263 39.3887 69.119 39.3887 69.119H38.6184C38.0409 69.119 37.5594 68.7343 37.4633 68.2528C37.3673 67.6752 37.8481 67.0977 38.4263 67.001L57.5844 65.1717C59.7024 64.979 61.339 62.9576 61.1463 60.7428C60.9536 58.5288 58.8356 56.8923 56.8142 57.181L39.774 56.9882C38.6189 56.9882 36.7897 56.6995 35.6346 56.314C24.6596 53.137 18.4983 56.1213 15.225 57.4691C14.4548 56.2173 13.107 55.447 11.5665 55.5438L4.25004 56.0253C1.65053 56.218 -0.178801 58.2401 0.0139139 60.6468L1.16897 76.9169C1.3617 79.2276 3.47966 81.0563 5.88646 80.8643L13.2029 80.3828C14.7434 80.2867 15.9945 79.3237 16.5728 78.0721L48.8238 79.4198C52.3857 79.8046 55.7554 79.3238 58.9325 77.6873L59.8955 77.2058L84.2523 62.9577C85.4073 62.2835 86.2743 61.0325 86.3702 59.6847C86.3696 58.0475 85.4066 56.2182 83.0958 56.1221L83.0965 56.1221ZM8.5822 77.013C7.23443 77.013 6.07931 75.954 6.07931 74.6062C6.07931 73.2585 7.23436 72.1994 8.5822 72.1994C9.92997 72.1994 11.0851 73.2585 11.0851 74.6062C11.0851 75.954 9.93004 77.013 8.5822 77.013ZM64.9974 61.706V60.3582C64.9014 59.7807 64.8047 59.2032 64.6126 58.7217V58.6257C67.2122 57.1819 72.2178 54.7751 75.01 53.716C76.3578 53.1384 77.7056 53.2345 78.9573 54.0047C77.9943 54.3895 77.032 54.775 76.1658 55.2565C73.2774 56.7003 68.1752 59.4926 65.6723 61.2251C65.4789 61.3205 65.1895 61.5133 64.9974 61.706ZM61.2428 54.4856C62.8794 53.6193 66.7307 52.3676 68.3671 51.6941C69.7149 51.1165 71.0627 51.2126 72.3144 51.9828C70.2924 52.8491 66.5378 54.1969 64.7093 55.1598L63.4576 55.834C63.3615 55.9301 63.2648 56.0268 63.1688 56.0268C62.5906 55.5446 62.0131 54.9664 61.2428 54.4856ZM24.5633 35.3275C23.9858 37.1569 25.2375 39.0821 27.1628 39.3709L28.4146 39.5637C29.7623 39.7564 30.8213 40.8154 31.1102 42.1632L31.3029 43.4149C31.5917 45.3402 33.517 46.496 35.4422 45.9178L36.694 45.533C38.0417 45.1482 39.4855 45.6291 40.2559 46.7848L41.0261 47.8438C42.1812 49.3843 44.396 49.6731 45.8397 48.3253L46.8027 47.459C47.8617 46.496 49.3056 46.3039 50.5573 46.9775L51.7124 47.555C53.4449 48.518 55.5629 47.7478 56.2371 45.9185L56.7186 44.7634C57.2001 43.5117 58.548 42.6455 59.8956 42.7414L61.1473 42.8374C63.0726 42.9334 64.7092 41.2969 64.5172 39.3716L64.4212 38.1199C64.3251 36.7721 65.0954 35.4243 66.4432 34.9429L67.5983 34.4614C69.4276 33.6912 70.1011 31.5731 69.1388 29.9367L68.2705 28.8776C67.5962 27.7226 67.789 26.182 68.6553 25.123L69.5215 24.16C70.7733 22.7162 70.5806 20.5015 68.944 19.3465L67.885 18.6722C66.7299 17.902 66.2485 16.4582 66.6332 15.1103L67.018 13.8586C67.5956 12.0293 66.3438 10.104 64.4185 9.81519L63.1681 9.62313C61.8204 9.4304 60.7613 8.37139 60.4725 7.02362L60.2798 5.77188C59.991 3.84662 58.0657 2.69085 56.1405 3.26899L54.8887 3.65379C53.5409 4.03858 52.0972 3.55776 51.3268 2.40205L50.5566 1.34302C49.4015 -0.197478 47.1867 -0.486311 45.743 0.861528L44.78 1.72782C43.721 2.69081 42.2771 2.88287 41.0254 2.20932L39.8703 1.63179C38.1378 0.668796 36.0198 1.43906 35.3456 3.26832L34.8641 4.42338C34.3826 5.67511 33.0347 6.54135 31.6871 6.44543L30.6281 6.25336C28.7028 6.15734 27.0662 7.79387 27.2582 9.71915L27.3543 10.9709C27.4503 12.3187 26.68 13.6665 25.3322 14.1479L24.1772 14.6293C22.3478 15.3996 21.6743 17.5177 22.6367 19.1541L23.3109 20.2131C23.9851 21.3682 23.7924 22.9088 22.9261 23.9677L22.0598 24.9307C20.8081 26.3745 21.0008 28.5892 22.6373 29.7443L23.6963 30.4185C24.8514 31.1888 25.3329 32.6326 24.9481 33.9804L24.5633 35.3275ZM38.6186 20.9829L42.8548 25.3149L53.0594 15.2062L57.4882 19.6351L47.2829 29.6477L42.8541 34.0765L34.1893 25.4117L38.6186 20.9829Z" fill="#6154E8"/>
</svg>
