<svg width="60" height="50" viewBox="0 0 80 70" fill="none" xmlns="http://www.w3.org/2000/svg">
<path fill-rule="evenodd" clip-rule="evenodd" d="M4.92643 56.9546V0H74.8273L74.8268 56.9546H4.92643ZM11.368 51.7592H68.3852V6.44158H11.368V51.7592ZM78.5031 59.4464C78.902 59.4464 79.2758 59.6333 79.5 59.9571H79.5002C79.7372 60.2815 79.8117 60.6926 79.6865 61.0659L77.7928 66.9969C77.2198 68.7917 75.5625 70 73.681 70H6.07198C4.17827 70 2.52096 68.791 1.94794 66.9969L0.0542264 61.0659C-0.0581621 60.692 0.00415151 60.2809 0.241153 59.9571C0.477573 59.6333 0.851426 59.4464 1.25032 59.4464H78.5031ZM10.3591 65.9679H13.1671V63.4761H10.3591V65.9679ZM16.1306 65.9679H18.9386V63.4761H16.1306V65.9679ZM21.9009 65.9679H24.7095V63.4761H21.9009V65.9679ZM58.3432 25.7308V32.4591H53.2222L52.7982 32.8952L50.929 31.026C51.6021 27.3131 50.4182 23.4004 47.7146 20.7088C42.6809 15.6623 32.3016 15.5627 28.7252 24.6465C27.0435 28.9704 28.0655 33.8672 31.3301 37.1195C33.5103 39.3125 36.4261 40.5208 39.5164 40.5208C40.2269 40.5208 40.9367 40.4585 41.6472 40.3216L43.5036 42.1781L43.2416 42.4395V47.5734H36.5133V42.9509C35.0802 42.6021 33.7099 42.0413 32.4638 41.2685L29.1871 44.533L24.4399 39.7858L27.7044 36.5091C26.9445 35.263 26.3709 33.8927 26.0221 32.4596H21.3995V25.7314H26.0349C26.3715 24.3111 26.9445 22.928 27.7044 21.6819L24.4399 18.4174L29.1871 13.6702L32.4638 16.9225C33.71 16.1625 35.0802 15.6017 36.5133 15.253V10.6304H43.2416V15.253C44.6747 15.6018 46.0449 16.1626 47.2911 16.9225L50.5555 13.6702L55.3155 18.4174L52.0511 21.6819C52.811 22.9281 53.3846 24.3111 53.7206 25.7314L58.3432 25.7308ZM52.7104 47.8718L58.529 42.1528L48.1752 31.7869C49.2466 28.5473 48.3994 24.9089 45.9571 22.4666C44.2375 20.747 41.9577 19.8001 39.5154 19.8001C38.3566 19.8001 37.2356 20.0243 36.1513 20.4482L34.3944 21.1459L40.0016 26.7403L37.3473 29.3946L31.7401 23.7874L31.0425 25.5564C29.7218 28.9455 30.519 32.7953 33.0859 35.3622C34.8055 37.0819 37.0859 38.0288 39.5154 38.0288C40.5124 38.0288 41.4843 37.8669 42.4061 37.5675L52.7104 47.8718Z" fill="url(#paint0_linear_3141_108048)"/>
<defs>
<linearGradient id="paint0_linear_3141_108048" x1="5.39951" y1="7.50001" x2="80.3914" y2="13.766" gradientUnits="userSpaceOnUse">
<stop stop-color="#0084FF"/>
<stop offset="0.541705" stop-color="#6055E8"/>
<stop offset="1" stop-color="#6D4FE5"/>
</linearGradient>
</defs>
</svg>
