<svg width="39" height="46" viewBox="0 0 39 46" fill="none" xmlns="http://www.w3.org/2000/svg">
<path fill-rule="evenodd" clip-rule="evenodd" d="M38.3914 46H0V43.3025H38.3914V46ZM25.4956 29.5241H35.0571V41.7827H25.4956V29.5241ZM14.4148 24.3766H23.9764V41.7827H14.4148V24.3766ZM19.8421 22.8575H18.6809H18.485V0.547292C18.485 0.407142 18.5428 0.278604 18.6368 0.184599C18.7301 0.0905908 19.0249 0 19.1651 0C19.3052 0 19.5964 0.0905943 19.6904 0.184599C19.7844 0.277922 19.8421 0.406109 19.8421 0.547292V22.8575ZM3.33367 33.2994H12.8952V41.7832H3.33367V33.2994ZM29.2284 8.83045L25.2265 11.1406L25.2265 11.1409C25.2238 11.1426 25.221 11.1443 25.2182 11.146C25.2079 11.1522 25.1974 11.1586 25.1885 11.1659L21.2307 13.4504V4.21527L25.2268 6.52235C25.2405 6.53021 25.2552 6.53807 25.2688 6.54491L29.2284 8.83045Z" fill="url(#paint0_linear_3695_104330)"/>
<defs>
<linearGradient id="paint0_linear_3695_104330" x1="2.59942" y1="4.92858" x2="38.8181" y2="7.14559" gradientUnits="userSpaceOnUse">
<stop stop-color="#0084FF"/>
<stop offset="0.541705" stop-color="#6055E8"/>
<stop offset="1" stop-color="#6D4FE5"/>
</linearGradient>
</defs>
</svg>
