<svg width="51" height="46" viewBox="0 0 51 46" fill="none" xmlns="http://www.w3.org/2000/svg">
<path fill-rule="evenodd" clip-rule="evenodd" d="M17.3353 35.8792L22.222 42.2302C22.6656 42.8067 22.5877 43.6228 22.049 44.1112L20.3685 45.6366C20.0682 45.9089 19.7071 46.0297 19.3035 45.9938C18.8999 45.9572 18.5677 45.7722 18.3199 45.4516L12.9019 38.438L17.3353 35.8792ZM44.1402 19.5798H49.1173C49.9131 19.5798 50.5573 18.9293 50.5558 18.135C50.5543 17.3388 49.9049 16.6957 49.1103 16.6957H44.1332C43.3374 16.6957 42.6931 17.3462 42.6946 18.1404C42.6962 18.937 43.3456 19.5798 44.1402 19.5798ZM38.2329 6.47648L40.7213 2.16664C41.1186 1.47795 40.8864 0.594445 40.1977 0.194864C39.5102 -0.204019 38.6248 0.0285298 38.2271 0.718398L35.7387 5.02823C35.3414 5.71692 35.5736 6.60043 36.2623 7.00001C36.9498 7.39851 37.8352 7.16557 38.2329 6.47648ZM43.9914 11.639L48.0773 9.28043C48.7706 8.88038 49.0086 7.99303 48.6078 7.29967C48.2078 6.6063 47.3204 6.3683 46.6271 6.76913L42.5412 9.12772C41.8478 9.52777 41.6098 10.4151 42.0107 11.1085C42.4107 11.8018 43.2973 12.0399 43.9914 11.639ZM37.5653 18.1299L42.3846 26.4772C43.2891 28.0443 42.7477 30.0667 41.1806 30.9712C39.7183 31.8157 37.859 31.4001 36.8817 30.0671C31.5475 29.2557 24.5981 30.1275 17.6895 32.8207L11.0464 21.3159C16.836 16.684 21.0783 11.1314 23.0428 6.10548C22.3529 4.58593 22.9193 2.74648 24.3937 1.89576C25.9608 0.991265 27.9832 1.53272 28.8885 3.09979L33.7078 11.4471C33.8449 11.3412 33.9906 11.243 34.1453 11.1538C36.0072 10.0787 38.3889 10.7171 39.464 12.5791C40.5391 14.4411 39.9006 16.8227 38.0387 17.8978C37.884 17.9874 37.7255 18.0642 37.5658 18.13L37.5653 18.1299ZM16.0186 34.0393L9.05802 21.9831L3.52432 25.1776C0.16183 27.1195 -1.00091 31.4584 0.940151 34.8209C2.88122 38.183 7.22097 39.3462 10.5831 37.4047L16.1168 34.2101L16.0186 34.0393Z" fill="url(#paint0_linear_3695_104336)"/>
<defs>
<linearGradient id="paint0_linear_3695_104336" x1="3.42305" y1="4.92858" x2="50.9875" y2="8.7626" gradientUnits="userSpaceOnUse">
<stop stop-color="#0084FF"/>
<stop offset="0.541705" stop-color="#6055E8"/>
<stop offset="1" stop-color="#6D4FE5"/>
</linearGradient>
</defs>
</svg>
