<svg width="57" height="80" viewBox="0 0 57 80" fill="none" xmlns="http://www.w3.org/2000/svg"><path fill-rule="evenodd" clip-rule="evenodd" d="M22.1093 5.75034C20.5332 3.03381 17.0404 2.10127 14.3098 3.67079C11.5797 5.24017 10.6437 8.71451 12.2199 11.4305C12.3352 11.6308 12.4613 11.822 12.5967 12.0006C12.416 11.867 12.2262 11.7415 12.0249 11.6245C9.29484 10.0563 5.80262 10.9876 4.2266 13.704C2.65059 16.4228 3.58539 19.8978 6.3165 21.4649C6.51782 21.5807 6.72142 21.6829 6.93019 21.7708C6.70651 21.7457 6.47594 21.732 6.24596 21.732C3.09261 21.7297 0.534774 24.2733 0.534774 27.4109C0.535922 30.5487 3.09275 33.0928 6.24375 33.0928C6.4766 33.0928 6.70544 33.0791 6.92913 33.0523C6.72151 33.1419 6.5179 33.24 6.31717 33.357C3.58594 34.9252 2.64993 38.4007 4.22726 41.1179C5.80328 43.8344 9.29609 44.7669 12.0256 43.1974C12.2269 43.0827 12.419 42.9571 12.5985 42.8213C12.4632 43.0011 12.3353 43.1911 12.2206 43.3903C10.6445 46.109 11.5805 49.5818 14.3105 51.1511C17.0417 52.7205 20.5339 51.788 22.1099 49.0716C22.2263 48.8713 22.329 48.6675 22.4173 48.4627C22.391 48.6852 22.3766 48.9118 22.3766 49.1435C22.3755 52.2812 24.9306 54.8242 28.0856 54.8242C31.2378 54.8242 33.7946 52.2818 33.7946 49.1452C33.7946 48.9136 33.782 48.687 33.7539 48.4633C33.8422 48.6687 33.9448 48.8725 34.0601 49.0722C35.6373 51.7887 39.1289 52.7213 41.8596 51.1517C44.5908 49.5824 45.5268 46.1096 43.9507 43.3909C43.8342 43.1923 43.7081 43.0006 43.5727 42.8208C43.7534 42.9566 43.9443 43.0839 44.1457 43.1986C46.8757 44.768 50.3667 43.8355 51.9439 41.119C53.52 38.4013 52.584 34.9264 49.854 33.3582C49.6527 33.2412 49.448 33.1402 49.2392 33.0523C49.4646 33.0786 49.6935 33.0928 49.9246 33.0928C53.0779 33.094 55.6347 30.5504 55.6347 27.4121C55.6336 24.2744 53.0785 21.7302 49.9258 21.7302C49.6941 21.7302 49.4641 21.7439 49.2404 21.7708C49.448 21.6829 49.6528 21.5819 49.8541 21.466C52.5841 19.8988 53.5213 16.4239 51.944 13.7052C50.3668 10.9887 46.8751 10.0573 44.1457 11.6256C43.9444 11.7415 43.7522 11.867 43.5716 12.0017C43.7069 11.8219 43.8348 11.6319 43.9495 11.4316C45.5267 8.71507 44.5919 5.24131 41.8596 3.67194C39.1284 2.10373 35.6373 3.03504 34.0602 5.75149C33.9449 5.95009 33.8428 6.15439 33.7539 6.36042C33.782 6.13786 33.7946 5.90958 33.7946 5.68187C33.7946 2.54253 31.2384 0 28.0856 0C24.9323 0 22.3755 2.54239 22.3755 5.68187C22.3755 5.91072 22.3893 6.139 22.4162 6.36042C22.3279 6.15382 22.2264 5.95123 22.1099 5.75149L22.1093 5.75034ZM30.8603 60.3776L42.2323 79.5923C42.4233 79.913 42.7886 80.0654 43.1534 79.9735C43.5164 79.8828 43.7671 79.5758 43.782 79.2043L44.1651 69.4077C44.1766 69.1269 44.3153 68.8878 44.5562 68.7383C44.7977 68.5888 45.0736 68.5682 45.334 68.6841L54.9979 72.946C55.3346 73.0944 55.7114 73.0128 55.9557 72.7394C56.2012 72.4661 56.2391 72.0837 56.0532 71.7692L46.0222 54.8249C45.3861 55.5086 44.6382 56.1101 43.7843 56.6008C41.1787 58.0972 38.1517 58.2295 35.542 57.224C34.3502 58.7015 32.7259 59.8155 30.8602 60.3783L30.8603 60.3776ZM20.6268 57.2234C18.0173 58.2289 14.99 58.0954 12.3857 56.6002C11.5317 56.1105 10.7844 55.5079 10.1478 54.8242L0.117883 71.7686C-0.0690833 72.083 -0.031232 72.466 0.214237 72.7387C0.458567 73.0121 0.835376 73.0937 1.17203 72.9453L10.8378 68.6834C11.097 68.5675 11.3729 68.5875 11.6144 68.7376C11.8547 68.8871 11.994 69.1268 12.0055 69.407L12.3898 79.2036C12.4047 79.5751 12.6553 79.8821 13.0172 79.9729C13.3814 80.0648 13.7485 79.9124 13.9383 79.5917L25.3103 60.3769C23.4446 59.8142 21.8193 58.7002 20.6273 57.2227L20.6268 57.2234ZM27.7495 18.7691L25.7015 23.5406C25.6521 23.6576 25.5483 23.7329 25.4204 23.7444L20.2277 24.2078C20.0883 24.2203 19.9771 24.3082 19.934 24.4395C19.8922 24.5719 19.9289 24.7077 20.0338 24.7996L23.9614 28.2106C24.0577 28.2951 24.0967 28.4161 24.0686 28.5405L22.9072 33.5979C22.8757 33.7326 22.9262 33.865 23.0374 33.9466C23.151 34.0271 23.2932 34.0334 23.4119 33.9632L27.8861 31.3009C27.9974 31.2352 28.1253 31.2352 28.2354 31.3009L32.7096 33.9632C32.8283 34.0339 32.97 34.0271 33.083 33.9466C33.1954 33.865 33.2464 33.7326 33.2143 33.5979L32.0529 28.5405C32.0248 28.4161 32.0632 28.2951 32.1601 28.2106L36.0877 24.7996C36.1915 24.7077 36.2294 24.5718 36.1863 24.4395C36.1433 24.3088 36.0321 24.2203 35.8944 24.2078L30.7017 23.7444C30.5738 23.7329 30.47 23.6576 30.4195 23.5406L28.3726 18.7691C28.3181 18.643 28.1994 18.5653 28.06 18.5653C27.9207 18.5653 27.8019 18.6435 27.7475 18.7691H27.7495ZM14.7155 27.411C14.7155 20.0651 20.7025 14.1081 28.0846 14.1081C35.4654 14.1081 41.4525 20.0655 41.4525 27.411C41.4525 34.7581 35.4654 40.7127 28.0846 40.7127C20.7021 40.7127 14.7155 34.7581 14.7155 27.411Z" fill="url(#paint0_linear_3695_103740)"/><defs><linearGradient id="paint0_linear_3695_103740" x1="3.80319" y1="8.57145" x2="56.8524" y2="11.3033" gradientUnits="userSpaceOnUse"><stop stop-color="#0084FF"/><stop offset="0.541705" stop-color="#6055E8"/><stop offset="1" stop-color="#6D4FE5"/></linearGradient></defs></svg>
