<svg width="36" height="46" viewBox="0 0 36 46" fill="none" xmlns="http://www.w3.org/2000/svg">
<path fill-rule="evenodd" clip-rule="evenodd" d="M27.56 5.76811C28.9832 8.35667 29.3194 11.4049 28.4947 14.2411L27.0695 13.8267C27.7829 11.3688 27.4908 8.72787 26.2573 6.48518C25.0238 4.2425 22.9497 2.58174 20.4917 1.86795C18.0338 1.15418 15.3929 1.44629 13.1502 2.67978L12.4328 1.38143C15.0203 -0.0441881 18.0682 -0.382699 20.9055 0.440056C23.7426 1.2628 26.1364 3.17963 27.56 5.76811ZM6.79362 4.53172C6.72771 4.54828 6.68167 4.60757 6.68167 4.67547C6.68167 4.74304 6.72771 4.80233 6.79362 4.81889C8.5574 5.26273 9.06184 5.76755 9.50564 7.53091V7.53124C9.5222 7.59682 9.58149 7.64319 9.64939 7.64319C9.71729 7.64319 9.77625 7.59682 9.79281 7.53124C10.2367 5.76746 10.7415 5.26303 12.5048 4.81922L12.5052 4.81889C12.5707 4.80233 12.6171 4.74304 12.6171 4.67547C12.6171 4.60757 12.5707 4.54828 12.5052 4.53172C10.7414 4.08788 10.2369 3.5834 9.79314 1.8197H9.79281C9.77625 1.75379 9.71729 1.70775 9.64939 1.70775C9.58149 1.70775 9.5222 1.75379 9.50564 1.8197C9.0618 3.58314 8.55732 4.08791 6.79362 4.53172ZM28.8212 17.6909C28.8212 17.7588 28.7752 17.8181 28.7093 17.8347C26.9456 18.2785 26.4411 18.7829 25.9973 20.5467C25.9807 20.6126 25.9214 20.6586 25.8535 20.6586C25.7856 20.6586 25.7266 20.6126 25.7101 20.5467H25.7098C25.2659 18.7833 24.7615 18.2785 22.9977 17.8347C22.9322 17.8181 22.8858 17.7588 22.8858 17.6909C22.8858 17.623 22.9322 17.564 22.9977 17.5475L22.9981 17.5472C24.7614 17.1033 25.2662 16.5989 25.7101 14.8351C25.7266 14.7696 25.7856 14.7232 25.8535 14.7232C25.9214 14.7232 25.9807 14.7696 25.9973 14.8351V14.8355C26.4411 16.5988 26.9455 17.1036 28.7093 17.5475C28.7752 17.564 28.8212 17.623 28.8212 17.6909ZM11.8711 45.9995V30.4188L17.8066 25.2252L23.7421 30.4188V45.9995H11.8711ZM19.1183 33.5853C19.466 33.2375 19.6615 32.7655 19.6615 32.2736C19.6615 31.7817 19.4661 31.3097 19.1183 30.9619C18.7704 30.6142 18.2985 30.4187 17.8066 30.4187C17.3147 30.4187 16.8427 30.6141 16.4949 30.9619C16.1472 31.3098 15.9517 31.7817 15.9517 32.2736C15.9517 32.7655 16.1471 33.2375 16.4949 33.5853C16.8427 33.9331 17.3147 34.1285 17.8066 34.1285C18.2985 34.1285 18.7705 33.9331 19.1183 33.5853ZM26.7098 45.9995V34.4821L31.1614 30.419L35.6131 34.4821V45.9995H26.7098ZM32.2107 36.6619C32.489 36.3836 32.6453 36.006 32.6453 35.6125C32.6453 35.2191 32.489 34.8414 32.2107 34.5632C31.9325 34.285 31.5549 34.1287 31.1614 34.1287C30.7679 34.1287 30.3903 34.285 30.1121 34.5632C29.8339 34.8414 29.6775 35.2191 29.6775 35.6125C29.6775 36.006 29.8339 36.3836 30.1121 36.6619C30.3903 36.9401 30.7679 37.0964 31.1614 37.0964C31.5549 37.0964 31.9325 36.9401 32.2107 36.6619ZM0 34.4821V45.9995H8.90326V34.4821L4.45163 30.419L0 34.4821ZM5.93551 35.6125C5.93551 36.006 5.77917 36.3836 5.50094 36.6619C5.22272 36.9401 4.84512 37.0964 4.45163 37.0964C4.05814 37.0964 3.68054 36.9401 3.40232 36.6619C3.1241 36.3836 2.96775 36.006 2.96775 35.6125C2.96775 35.2191 3.1241 34.8414 3.40232 34.5632C3.68054 34.285 4.05814 34.1287 4.45163 34.1287C4.84512 34.1287 5.22272 34.285 5.50094 34.5632C5.77917 34.8414 5.93551 35.2191 5.93551 35.6125ZM13.6097 15.3253C12.4964 14.2124 11.8711 12.7026 11.8711 11.1284C11.8711 9.5541 12.4964 8.04436 13.6097 6.93145C14.7226 5.8182 16.2323 5.19285 17.8066 5.19285C19.3809 5.19285 20.8906 5.8182 22.0035 6.93145C23.1168 8.04436 23.7421 9.5541 23.7421 11.1284C23.7421 12.7026 23.1168 14.2124 22.0035 15.3253C20.8906 16.4385 19.3809 17.0639 17.8066 17.0639C16.2323 17.0639 14.7226 16.4385 13.6097 15.3253ZM19.2905 11.5778L20.7744 10.0568L18.7237 9.7435L17.8066 7.78961L16.8895 9.74316L14.8388 10.0565L16.3227 11.5775L15.9723 13.7251L17.8066 12.7113L19.6409 13.7251L19.2905 11.5778ZM23.4105 20.7455L22.6623 19.4645C20.4928 20.7251 17.9179 21.0915 15.4831 20.4857C13.0482 19.8799 10.945 18.3496 9.61913 16.2196C8.29323 14.0895 7.84942 11.5268 8.38099 9.07439L6.9306 8.76006H6.93027C6.21782 12.0505 7.03129 15.4865 9.14354 18.1076C11.2557 20.7289 14.4405 22.2545 17.8068 22.2575C19.7756 22.2582 21.7093 21.7365 23.4105 20.7455Z" fill="url(#paint0_linear_3695_103709)"/>
<defs>
<linearGradient id="paint0_linear_3695_103709" x1="2.4113" y1="4.92809" x2="36.0264" y2="6.83683" gradientUnits="userSpaceOnUse">
<stop stop-color="#0084FF"/>
<stop offset="0.541705" stop-color="#6055E8"/>
<stop offset="1" stop-color="#6D4FE5"/>
</linearGradient>
</defs>
</svg>
