<svg width="33" height="80" viewBox="0 0 33 80" fill="none" xmlns="http://www.w3.org/2000/svg"><path d="M0.207273 38.6461C-0.0631405 39.0857 -0.0631407 39.6273 0.173282 40.0677C0.410474 40.5073 0.884083 40.8125 1.42568 40.8125H9.03977V78.5784C9.03977 79.3564 9.68258 80 10.4614 80H22.5087C23.2868 80 23.9303 79.3572 23.9303 78.5784L23.9296 40.8125H31.5777C32.0853 40.8125 32.5589 40.5421 32.8301 40.0677C32.9313 39.8645 32.9993 39.6281 32.9993 39.3909C32.9993 39.1205 32.9313 38.8833 32.7961 38.6461L17.7031 14.5189C17.4327 14.1125 16.9923 13.8421 16.5187 13.8421C16.0451 13.8421 15.5715 14.0793 15.3343 14.5189L0.207273 38.6461Z" fill="url(#paint0_linear_3695_103743)"/><path d="M0.00390625 0H32.9644V8.08765H0.00390625V0Z" fill="url(#paint1_linear_3695_103743)"/><defs><linearGradient id="paint0_linear_3695_103743" x1="2.23433" y1="20.9305" x2="33.441" y2="22.0721" gradientUnits="userSpaceOnUse"><stop stop-color="#0084FF"/><stop offset="0.541705" stop-color="#6055E8"/><stop offset="1" stop-color="#6D4FE5"/></linearGradient><linearGradient id="paint1_linear_3695_103743" x1="2.23561" y1="0.866536" x2="30.8875" y2="9.43067" gradientUnits="userSpaceOnUse"><stop stop-color="#0084FF"/><stop offset="0.541705" stop-color="#6055E8"/><stop offset="1" stop-color="#6D4FE5"/></linearGradient></defs></svg>