<svg width="66" height="80" viewBox="0 0 66 80" fill="none" xmlns="http://www.w3.org/2000/svg"><path fill-rule="evenodd" clip-rule="evenodd" d="M0 47.0654V11.5128C0 10.8702 0.497194 10.3487 1.12762 10.3006C10.6431 9.60937 22.7768 7.85191 32.171 0.2638C32.6073 -0.0879334 33.2499 -0.0879334 33.6862 0.2638C43.0925 7.85191 55.2143 9.61001 64.7295 10.3006C65.36 10.3493 65.8571 10.8702 65.8571 11.5128V47.0654C65.8571 69.1507 34.6318 79.515 33.2986 79.9391C33.1768 79.9757 33.0557 80 32.9347 80C32.8007 80 32.6796 79.9757 32.5586 79.9391C31.2252 79.5149 0 69.1509 0 47.0654ZM23.0009 40.0517C22.3594 39.4102 21.3202 39.4102 20.6787 40.0517C20.0372 40.6932 20.0373 41.7324 20.6788 42.3739L26.8289 48.524C27.1496 48.8447 27.5693 49.0051 27.9899 49.0051C28.4097 49.0051 28.8303 48.8447 29.151 48.524L45.2626 32.4124C45.9041 31.771 45.9041 30.7317 45.2626 30.0903C44.6211 29.4488 43.5819 29.4488 42.9404 30.0903L27.9899 45.0407L23.0009 40.0517Z" fill="url(#paint0_linear_3695_9941)"/><defs><linearGradient id="paint0_linear_3695_9941" x1="4.45908" y1="8.57145" x2="66.5955" y2="12.3231" gradientUnits="userSpaceOnUse"><stop stop-color="#0084FF"/><stop offset="0.541705" stop-color="#6055E8"/><stop offset="1" stop-color="#6D4FE5"/></linearGradient></defs></svg>
