<svg width="32" height="32" viewBox="0 0 32 32" fill="none" xmlns="http://www.w3.org/2000/svg">
<path d="M13.2059 4.31713C14.5175 2.29063 17.4825 2.29063 18.7941 4.31713C19.5449 5.47708 20.9342 6.05256 22.2853 5.76321C24.6457 5.2577 26.7423 7.35433 26.2368 9.71472C25.9474 11.0658 26.5229 12.4551 27.6829 13.2059C29.7094 14.5175 29.7094 17.4825 27.6829 18.7941C26.5229 19.5449 25.9474 20.9342 26.2368 22.2853C26.7423 24.6457 24.6457 26.7423 22.2853 26.2368C20.9342 25.9474 19.5449 26.5229 18.7941 27.6829C17.4825 29.7094 14.5175 29.7094 13.2059 27.6829C12.4551 26.5229 11.0658 25.9474 9.71472 26.2368C7.35433 26.7423 5.2577 24.6457 5.76321 22.2853C6.05256 20.9342 5.47708 19.5449 4.31713 18.7941C2.29063 17.4825 2.29063 14.5175 4.31713 13.2059C5.47708 12.4551 6.05256 11.0658 5.76321 9.71472C5.2577 7.35433 7.35433 5.2577 9.71472 5.76321C11.0658 6.05256 12.4551 5.47708 13.2059 4.31713Z" fill="url(#paint0_linear_2233_105533)"/>
<path d="M21.1111 12L14.1597 19L11 15.8182" stroke="white" stroke-width="2" stroke-linecap="square" stroke-linejoin="round"/>
<defs>
<linearGradient id="paint0_linear_2233_105533" x1="1.78025" y1="3.2" x2="35.1123" y2="10.5328" gradientUnits="userSpaceOnUse">
<stop stop-color="#0084FF"/>
<stop offset="0.666667" stop-color="#7C6EFF"/>
<stop offset="1" stop-color="#936AFF"/>
</linearGradient>
</defs>
</svg>
